<mxfile host="Electron" agent="Mozilla/5.0 (Windows NT 10.0; Win64; x64) AppleWebKit/537.36 (KHTML, like Gecko) draw.io/27.0.9 Chrome/134.0.6998.205 Electron/35.4.0 Safari/537.36" version="27.0.9">
  <diagram name="Page-1" id="_UPrMGzxBDNOLedU5Sml">
    <mxGraphModel dx="2142" dy="674" grid="1" gridSize="10" guides="1" tooltips="1" connect="1" arrows="0" fold="1" page="1" pageScale="1" pageWidth="1100" pageHeight="850" math="0" shadow="0">
      <root>
        <mxCell id="0" />
        <mxCell id="1" parent="0" />
        <mxCell id="xN5cz88N0z8xkNAHK5LB-1" value="" style="rounded=0;whiteSpace=wrap;html=1;strokeColor=light-dark(#A50040, #f2f2f2);fontColor=#ffffff;fillColor=none;dashed=1;" parent="1" vertex="1">
          <mxGeometry x="20" y="140" width="140" height="460" as="geometry" />
        </mxCell>
        <mxCell id="xN5cz88N0z8xkNAHK5LB-2" value="sources" style="rounded=0;whiteSpace=wrap;html=1;strokeColor=none;fontColor=#FEFAE0;fillColor=default;fontSize=24;" parent="1" vertex="1">
          <mxGeometry x="47.5" y="120" width="85" height="30" as="geometry" />
        </mxCell>
        <mxCell id="xN5cz88N0z8xkNAHK5LB-3" value="high level architecture" style="rounded=0;whiteSpace=wrap;html=1;strokeColor=none;fontColor=#FEFAE0;fillColor=none;fontSize=32;" parent="1" vertex="1">
          <mxGeometry x="-40" width="430" height="60" as="geometry" />
        </mxCell>
        <mxCell id="xN5cz88N0z8xkNAHK5LB-4" value="" style="rounded=0;whiteSpace=wrap;html=1;strokeColor=light-dark(#A50040, #f2f2f2);fontColor=#ffffff;fillColor=none;dashed=1;" parent="1" vertex="1">
          <mxGeometry x="200" y="140" width="600" height="460" as="geometry" />
        </mxCell>
        <mxCell id="xN5cz88N0z8xkNAHK5LB-8" value="data warehouse" style="rounded=0;whiteSpace=wrap;html=1;strokeColor=none;fontColor=#FEFAE0;fillColor=default;fontSize=24;" parent="1" vertex="1">
          <mxGeometry x="380" y="120" width="240" height="30" as="geometry" />
        </mxCell>
        <mxCell id="xN5cz88N0z8xkNAHK5LB-9" value="" style="rounded=0;whiteSpace=wrap;html=1;strokeColor=light-dark(#A50040, #f2f2f2);fontColor=#ffffff;fillColor=none;dashed=1;" parent="1" vertex="1">
          <mxGeometry x="850" y="140" width="130" height="460" as="geometry" />
        </mxCell>
        <mxCell id="xN5cz88N0z8xkNAHK5LB-10" value="consume" style="rounded=0;whiteSpace=wrap;html=1;strokeColor=none;fontColor=#FEFAE0;fillColor=light-dark(default, #ffffff);fontSize=20;" parent="1" vertex="1">
          <mxGeometry x="872.5" y="120" width="85" height="30" as="geometry" />
        </mxCell>
        <mxCell id="xN5cz88N0z8xkNAHK5LB-11" value="bronze" style="rounded=0;whiteSpace=wrap;html=1;strokeColor=#DDA15E;fontColor=light-dark(#FEFAE0, #f5f5f5);fillColor=#BC6C25;fontSize=18;" parent="1" vertex="1">
          <mxGeometry x="220" y="160" width="130" height="20" as="geometry" />
        </mxCell>
        <mxCell id="xN5cz88N0z8xkNAHK5LB-12" value="" style="rounded=0;whiteSpace=wrap;html=1;strokeColor=#DDA15E;fontColor=#FEFAE0;fillColor=none;" parent="1" vertex="1">
          <mxGeometry x="220" y="190" width="130" height="400" as="geometry" />
        </mxCell>
        <mxCell id="xN5cz88N0z8xkNAHK5LB-13" value="" style="rounded=0;whiteSpace=wrap;html=1;strokeColor=light-dark(#DDA15E, #8a8785);fontColor=#FEFAE0;fillColor=none;" parent="1" vertex="1">
          <mxGeometry x="430" y="190" width="130" height="400" as="geometry" />
        </mxCell>
        <mxCell id="xN5cz88N0z8xkNAHK5LB-14" value="silver" style="rounded=0;whiteSpace=wrap;html=1;strokeColor=light-dark(#DDA15E, #8a8785);fontColor=light-dark(#FEFAE0, #f5f5f5);fillColor=light-dark(#BC6C25, #969492);fontSize=18;" parent="1" vertex="1">
          <mxGeometry x="430" y="160" width="130" height="20" as="geometry" />
        </mxCell>
        <mxCell id="xN5cz88N0z8xkNAHK5LB-17" value="" style="rounded=0;whiteSpace=wrap;html=1;strokeColor=#DDA15E;fontColor=#FEFAE0;fillColor=none;" parent="1" vertex="1">
          <mxGeometry x="640" y="190" width="130" height="390" as="geometry" />
        </mxCell>
        <mxCell id="xN5cz88N0z8xkNAHK5LB-18" value="gold" style="rounded=0;whiteSpace=wrap;html=1;strokeColor=#DDA15E;fontColor=light-dark(#FEFAE0, #f5f5f5);fillColor=light-dark(#BC6C25, #c4a921);fontSize=18;" parent="1" vertex="1">
          <mxGeometry x="640" y="160" width="130" height="20" as="geometry" />
        </mxCell>
        <mxCell id="xN5cz88N0z8xkNAHK5LB-19" value="crm" style="image;aspect=fixed;html=1;points=[];align=center;fontSize=15;image=img/lib/azure2/general/Folder_Blank.svg;strokeColor=#DDA15E;fontColor=#FEFAE0;fillColor=#BC6C25;" parent="1" vertex="1">
          <mxGeometry x="65.36" y="210" width="49.29" height="40" as="geometry" />
        </mxCell>
        <mxCell id="xN5cz88N0z8xkNAHK5LB-20" value="erp" style="image;aspect=fixed;html=1;points=[];align=center;fontSize=15;image=img/lib/azure2/general/Folder_Blank.svg;strokeColor=#DDA15E;fontColor=#FEFAE0;fillColor=#BC6C25;" parent="1" vertex="1">
          <mxGeometry x="65.36" y="310" width="49.29" height="40" as="geometry" />
        </mxCell>
        <mxCell id="xN5cz88N0z8xkNAHK5LB-21" value="" style="image;aspect=fixed;html=1;points=[];align=center;fontSize=12;image=img/lib/azure2/general/File.svg;strokeColor=#DDA15E;fontColor=#FEFAE0;fillColor=#BC6C25;" parent="1" vertex="1">
          <mxGeometry x="100" y="230" width="24.35" height="30" as="geometry" />
        </mxCell>
        <mxCell id="xN5cz88N0z8xkNAHK5LB-22" value="" style="image;aspect=fixed;html=1;points=[];align=center;fontSize=12;image=img/lib/azure2/general/File.svg;strokeColor=#DDA15E;fontColor=#FEFAE0;fillColor=#BC6C25;" parent="1" vertex="1">
          <mxGeometry x="100" y="330" width="24.35" height="30" as="geometry" />
        </mxCell>
        <mxCell id="RvjIYHM76L2CF4vEMhgm-1" value="&lt;b&gt;Object type&lt;/b&gt;: CSV files&lt;div&gt;&lt;br&gt;&lt;div&gt;&lt;b&gt;Interface&lt;/b&gt;: files in folder&lt;/div&gt;&lt;/div&gt;" style="text;html=1;align=center;verticalAlign=middle;whiteSpace=wrap;rounded=0;" parent="1" vertex="1">
          <mxGeometry x="25" y="440" width="130" height="30" as="geometry" />
        </mxCell>
        <mxCell id="RvjIYHM76L2CF4vEMhgm-3" value="" style="endArrow=none;html=1;rounded=0;strokeColor=#999999;" parent="1" edge="1">
          <mxGeometry width="50" height="50" relative="1" as="geometry">
            <mxPoint x="60" y="410" as="sourcePoint" />
            <mxPoint x="120" y="410" as="targetPoint" />
            <Array as="points">
              <mxPoint x="40" y="410" />
              <mxPoint x="140" y="410" />
            </Array>
          </mxGeometry>
        </mxCell>
        <mxCell id="RvjIYHM76L2CF4vEMhgm-6" value="" style="endArrow=none;html=1;rounded=0;strokeColor=#BC6C25;" parent="1" edge="1">
          <mxGeometry width="50" height="50" relative="1" as="geometry">
            <mxPoint x="255" y="340" as="sourcePoint" />
            <mxPoint x="315" y="340" as="targetPoint" />
            <Array as="points">
              <mxPoint x="235" y="340" />
              <mxPoint x="335" y="340" />
            </Array>
          </mxGeometry>
        </mxCell>
        <mxCell id="RvjIYHM76L2CF4vEMhgm-7" value="" style="endArrow=none;html=1;rounded=0;strokeColor=#999999;" parent="1" edge="1">
          <mxGeometry width="50" height="50" relative="1" as="geometry">
            <mxPoint x="465" y="340" as="sourcePoint" />
            <mxPoint x="525" y="340" as="targetPoint" />
            <Array as="points">
              <mxPoint x="445" y="340" />
              <mxPoint x="545" y="340" />
            </Array>
          </mxGeometry>
        </mxCell>
        <mxCell id="RvjIYHM76L2CF4vEMhgm-8" value="" style="endArrow=none;html=1;rounded=0;strokeColor=#C4A921;" parent="1" edge="1">
          <mxGeometry width="50" height="50" relative="1" as="geometry">
            <mxPoint x="675" y="339" as="sourcePoint" />
            <mxPoint x="735" y="339" as="targetPoint" />
            <Array as="points">
              <mxPoint x="655" y="339" />
              <mxPoint x="700" y="339" />
              <mxPoint x="755" y="339" />
            </Array>
          </mxGeometry>
        </mxCell>
        <mxCell id="RvjIYHM76L2CF4vEMhgm-9" value="clean, standardized&amp;nbsp;&lt;span style=&quot;background-color: transparent; color: light-dark(rgb(0, 0, 0), rgb(255, 255, 255));&quot;&gt;data&lt;/span&gt;" style="html=1;verticalLabelPosition=bottom;align=center;labelBackgroundColor=none;verticalAlign=top;strokeWidth=2;strokeColor=#4D4D4D;shadow=0;dashed=0;shape=mxgraph.ios7.icons.data;fillStyle=solid;fillColor=#969492;fontSize=9;" parent="1" vertex="1">
          <mxGeometry x="470" y="260" width="50" height="50" as="geometry" />
        </mxCell>
        <mxCell id="RvjIYHM76L2CF4vEMhgm-10" value="raw data" style="html=1;verticalLabelPosition=bottom;align=center;labelBackgroundColor=none;verticalAlign=top;strokeWidth=2;strokeColor=#FFB366;shadow=0;dashed=0;shape=mxgraph.ios7.icons.data;fillStyle=solid;fillColor=#BC6C25;fontSize=9;" parent="1" vertex="1">
          <mxGeometry x="260" y="260" width="50" height="50" as="geometry" />
        </mxCell>
        <mxCell id="RvjIYHM76L2CF4vEMhgm-11" value="business-ready&amp;nbsp;&lt;span style=&quot;background-color: transparent; color: light-dark(rgb(0, 0, 0), rgb(255, 255, 255));&quot;&gt;data&lt;/span&gt;" style="html=1;verticalLabelPosition=bottom;align=center;labelBackgroundColor=none;verticalAlign=top;strokeWidth=2;strokeColor=#BC6C25;shadow=0;dashed=0;shape=mxgraph.ios7.icons.data;fillColor=light-dark(#000000,#C0C331);fillStyle=solid;fontSize=9;" parent="1" vertex="1">
          <mxGeometry x="680" y="260" width="50" height="50" as="geometry" />
        </mxCell>
        <mxCell id="RvjIYHM76L2CF4vEMhgm-12" value="" style="shape=flexArrow;endArrow=classic;html=1;rounded=0;fillColor=#99CCFF;fillStyle=solid;" parent="1" edge="1">
          <mxGeometry width="50" height="50" relative="1" as="geometry">
            <mxPoint x="147.5" y="295" as="sourcePoint" />
            <mxPoint x="220" y="294.5" as="targetPoint" />
          </mxGeometry>
        </mxCell>
        <mxCell id="RvjIYHM76L2CF4vEMhgm-13" value="" style="shape=flexArrow;endArrow=classic;html=1;rounded=0;fillColor=#99CCFF;fillStyle=solid;" parent="1" edge="1">
          <mxGeometry width="50" height="50" relative="1" as="geometry">
            <mxPoint x="567.5" y="295" as="sourcePoint" />
            <mxPoint x="640" y="294.5" as="targetPoint" />
          </mxGeometry>
        </mxCell>
        <mxCell id="RvjIYHM76L2CF4vEMhgm-14" value="" style="shape=flexArrow;endArrow=classic;html=1;rounded=0;fillColor=#99CCFF;fillStyle=solid;" parent="1" edge="1">
          <mxGeometry width="50" height="50" relative="1" as="geometry">
            <mxPoint x="357.5" y="295" as="sourcePoint" />
            <mxPoint x="430" y="294.5" as="targetPoint" />
          </mxGeometry>
        </mxCell>
        <mxCell id="RvjIYHM76L2CF4vEMhgm-15" value="" style="shape=flexArrow;endArrow=classic;html=1;rounded=0;fillColor=#99CCFF;fillStyle=solid;" parent="1" edge="1">
          <mxGeometry width="50" height="50" relative="1" as="geometry">
            <mxPoint x="777.5" y="295" as="sourcePoint" />
            <mxPoint x="850" y="294.5" as="targetPoint" />
          </mxGeometry>
        </mxCell>
        <mxCell id="RvjIYHM76L2CF4vEMhgm-18" value="&lt;font style=&quot;font-size: 10px;&quot;&gt;&lt;b&gt;Object type&lt;/b&gt;: Tables&lt;/font&gt;&lt;div&gt;&lt;b style=&quot;background-color: transparent; color: light-dark(rgb(0, 0, 0), rgb(255, 255, 255));&quot;&gt;&lt;font style=&quot;font-size: 10px;&quot;&gt;&lt;br&gt;&lt;/font&gt;&lt;/b&gt;&lt;/div&gt;&lt;div&gt;&lt;div style=&quot;text-align: left;&quot;&gt;&lt;font style=&quot;font-size: 10px;&quot;&gt;&lt;b style=&quot;background-color: transparent; color: light-dark(rgb(0, 0, 0), rgb(255, 255, 255));&quot;&gt;&amp;nbsp; &amp;nbsp; &amp;nbsp; &amp;nbsp;Load:&lt;/b&gt;&lt;span style=&quot;background-color: transparent; color: light-dark(rgb(0, 0, 0), rgb(255, 255, 255));&quot;&gt;&amp;nbsp;&lt;/span&gt;&lt;/font&gt;&lt;/div&gt;&lt;div style=&quot;text-align: left;&quot;&gt;&lt;ul&gt;&lt;li&gt;&lt;span style=&quot;background-color: transparent; color: light-dark(rgb(0, 0, 0), rgb(255, 255, 255));&quot;&gt;&lt;font style=&quot;font-size: 10px;&quot;&gt;batch processing&lt;/font&gt;&lt;/span&gt;&lt;/li&gt;&lt;li&gt;&lt;span style=&quot;background-color: transparent; color: light-dark(rgb(0, 0, 0), rgb(255, 255, 255));&quot;&gt;&lt;font style=&quot;font-size: 10px;&quot;&gt;full load&lt;/font&gt;&lt;/span&gt;&lt;/li&gt;&lt;li&gt;&lt;span style=&quot;background-color: transparent; color: light-dark(rgb(0, 0, 0), rgb(255, 255, 255));&quot;&gt;&lt;font style=&quot;font-size: 10px;&quot;&gt;truncate and insert&lt;/font&gt;&lt;/span&gt;&lt;/li&gt;&lt;/ul&gt;&lt;font style=&quot;font-size: 10px;&quot;&gt;&amp;nbsp; &amp;nbsp; &amp;nbsp; No &lt;b&gt;transformations&lt;/b&gt;&lt;/font&gt;&lt;/div&gt;&lt;div style=&quot;text-align: left;&quot;&gt;&lt;font style=&quot;font-size: 10px;&quot;&gt;&lt;b&gt;&lt;br&gt;&lt;/b&gt;&lt;/font&gt;&lt;/div&gt;&lt;div style=&quot;text-align: left;&quot;&gt;&lt;font style=&quot;font-size: 10px;&quot;&gt;&lt;b&gt;&amp;nbsp; &amp;nbsp; &amp;nbsp; Data model: &lt;/b&gt;none (as-is)&lt;/font&gt;&lt;/div&gt;&lt;div&gt;&lt;div style=&quot;text-align: left;&quot;&gt;&lt;br&gt;&lt;/div&gt;&lt;div&gt;&lt;br&gt;&lt;/div&gt;&lt;/div&gt;&lt;/div&gt;" style="text;html=1;align=center;verticalAlign=middle;whiteSpace=wrap;rounded=0;" parent="1" vertex="1">
          <mxGeometry x="205" y="350" width="145" height="190" as="geometry" />
        </mxCell>
        <mxCell id="RvjIYHM76L2CF4vEMhgm-19" value="&lt;div&gt;&lt;font style=&quot;font-size: 10px;&quot;&gt;&lt;b&gt;&lt;br&gt;&lt;/b&gt;&lt;/font&gt;&lt;/div&gt;&lt;font style=&quot;font-size: 10px;&quot;&gt;&lt;b&gt;Object type&lt;/b&gt;: Tables&lt;/font&gt;&lt;div&gt;&lt;b style=&quot;background-color: transparent; color: light-dark(rgb(0, 0, 0), rgb(255, 255, 255));&quot;&gt;&lt;font style=&quot;font-size: 10px;&quot;&gt;&lt;br&gt;&lt;/font&gt;&lt;/b&gt;&lt;/div&gt;&lt;div&gt;&lt;div style=&quot;text-align: left;&quot;&gt;&lt;font style=&quot;font-size: 10px;&quot;&gt;&lt;b style=&quot;background-color: transparent; color: light-dark(rgb(0, 0, 0), rgb(255, 255, 255));&quot;&gt;&amp;nbsp; &amp;nbsp; &amp;nbsp; &amp;nbsp; &amp;nbsp; Load:&lt;/b&gt;&lt;span style=&quot;background-color: transparent; color: light-dark(rgb(0, 0, 0), rgb(255, 255, 255));&quot;&gt;&amp;nbsp;&lt;/span&gt;&lt;/font&gt;&lt;/div&gt;&lt;div style=&quot;text-align: left;&quot;&gt;&lt;ul&gt;&lt;li&gt;&lt;span style=&quot;background-color: transparent; color: light-dark(rgb(0, 0, 0), rgb(255, 255, 255));&quot;&gt;&lt;font style=&quot;font-size: 10px;&quot;&gt;batch processing&lt;/font&gt;&lt;/span&gt;&lt;/li&gt;&lt;li&gt;&lt;span style=&quot;background-color: transparent; color: light-dark(rgb(0, 0, 0), rgb(255, 255, 255));&quot;&gt;&lt;font style=&quot;font-size: 10px;&quot;&gt;full load&lt;/font&gt;&lt;/span&gt;&lt;/li&gt;&lt;li&gt;&lt;span style=&quot;background-color: transparent; color: light-dark(rgb(0, 0, 0), rgb(255, 255, 255));&quot;&gt;&lt;font style=&quot;font-size: 10px;&quot;&gt;truncate and insert&lt;/font&gt;&lt;/span&gt;&lt;/li&gt;&lt;/ul&gt;&lt;font style=&quot;font-size: 10px;&quot;&gt;&amp;nbsp; &amp;nbsp; &amp;nbsp; &amp;nbsp; &amp;nbsp; T&lt;b&gt;ransformations:&lt;/b&gt;&lt;/font&gt;&lt;/div&gt;&lt;div style=&quot;text-align: left;&quot;&gt;&lt;ul&gt;&lt;li&gt;&lt;font style=&quot;font-size: 10px;&quot;&gt;&lt;b&gt;data cleansing&lt;/b&gt;&lt;/font&gt;&lt;/li&gt;&lt;li&gt;&lt;font style=&quot;font-size: 10px;&quot;&gt;&lt;b&gt;data standardisation&lt;/b&gt;&lt;/font&gt;&lt;/li&gt;&lt;li&gt;&lt;font style=&quot;font-size: 10px;&quot;&gt;&lt;b&gt;data normalisation&lt;/b&gt;&lt;/font&gt;&lt;/li&gt;&lt;li&gt;&lt;font style=&quot;font-size: 10px;&quot;&gt;&lt;b&gt;derived columns&lt;/b&gt;&lt;/font&gt;&lt;/li&gt;&lt;li&gt;&lt;font style=&quot;font-size: 10px;&quot;&gt;&lt;b&gt;data enrichment&lt;/b&gt;&lt;/font&gt;&lt;/li&gt;&lt;/ul&gt;&lt;/div&gt;&lt;div style=&quot;text-align: left;&quot;&gt;&lt;font style=&quot;font-size: 10px;&quot;&gt;&lt;b&gt;&amp;nbsp; &amp;nbsp; &amp;nbsp; &amp;nbsp;Data model: &lt;/b&gt;none (as-is)&lt;/font&gt;&lt;/div&gt;&lt;div&gt;&lt;div style=&quot;text-align: left;&quot;&gt;&lt;br&gt;&lt;/div&gt;&lt;div&gt;&lt;br&gt;&lt;/div&gt;&lt;/div&gt;&lt;/div&gt;" style="text;html=1;align=center;verticalAlign=middle;whiteSpace=wrap;rounded=0;" parent="1" vertex="1">
          <mxGeometry x="415" y="340" width="145" height="260" as="geometry" />
        </mxCell>
        <mxCell id="RvjIYHM76L2CF4vEMhgm-20" value="&lt;font style=&quot;font-size: 10px;&quot;&gt;&lt;b&gt;Object type&lt;/b&gt;: Tables&lt;/font&gt;&lt;div&gt;&lt;b style=&quot;background-color: transparent; color: light-dark(rgb(0, 0, 0), rgb(255, 255, 255));&quot;&gt;&lt;font style=&quot;font-size: 10px;&quot;&gt;&lt;br&gt;&lt;/font&gt;&lt;/b&gt;&lt;/div&gt;&lt;div&gt;&lt;div style=&quot;text-align: left;&quot;&gt;&lt;font style=&quot;font-size: 10px;&quot;&gt;&lt;b style=&quot;background-color: transparent; color: light-dark(rgb(0, 0, 0), rgb(255, 255, 255));&quot;&gt;&amp;nbsp; &amp;nbsp; &amp;nbsp; &amp;nbsp; &amp;nbsp; No Load&lt;/b&gt;&lt;/font&gt;&lt;/div&gt;&lt;div style=&quot;text-align: left;&quot;&gt;&lt;font style=&quot;font-size: 10px;&quot;&gt;&lt;b style=&quot;background-color: transparent; color: light-dark(rgb(0, 0, 0), rgb(255, 255, 255));&quot;&gt;&lt;br&gt;&lt;/b&gt;&lt;/font&gt;&lt;/div&gt;&lt;div style=&quot;text-align: left;&quot;&gt;&lt;font style=&quot;font-size: 10px;&quot;&gt;&amp;nbsp; &amp;nbsp; &amp;nbsp; &amp;nbsp; &amp;nbsp; T&lt;b&gt;ransformations:&lt;/b&gt;&lt;/font&gt;&lt;/div&gt;&lt;div style=&quot;text-align: left;&quot;&gt;&lt;ul&gt;&lt;li&gt;&lt;font style=&quot;font-size: 10px;&quot;&gt;&lt;b&gt;data integrations&lt;/b&gt;&lt;/font&gt;&lt;/li&gt;&lt;li&gt;&lt;font style=&quot;font-size: 10px;&quot;&gt;&lt;b&gt;data aggregations&lt;/b&gt;&lt;/font&gt;&lt;/li&gt;&lt;li&gt;&lt;span style=&quot;font-size: 10px;&quot;&gt;&lt;b&gt;business logic&lt;/b&gt;&lt;/span&gt;&lt;/li&gt;&lt;/ul&gt;&lt;/div&gt;&lt;div style=&quot;text-align: left;&quot;&gt;&lt;font style=&quot;font-size: 10px;&quot;&gt;&lt;b&gt;&amp;nbsp; &amp;nbsp; &amp;nbsp; &amp;nbsp;Data model:&amp;nbsp;&lt;/b&gt;&lt;/font&gt;&lt;/div&gt;&lt;div style=&quot;text-align: left;&quot;&gt;&lt;ul&gt;&lt;li&gt;&lt;font style=&quot;font-size: 10px;&quot;&gt;&lt;b&gt;star schema&lt;/b&gt;&lt;/font&gt;&lt;/li&gt;&lt;li&gt;&lt;font style=&quot;font-size: 10px;&quot;&gt;&lt;b&gt;flat table&lt;/b&gt;&lt;/font&gt;&lt;/li&gt;&lt;li&gt;&lt;font style=&quot;font-size: 10px;&quot;&gt;&lt;b&gt;aggregate table&lt;/b&gt;&lt;/font&gt;&lt;/li&gt;&lt;/ul&gt;&lt;/div&gt;&lt;div&gt;&lt;div style=&quot;text-align: left;&quot;&gt;&lt;br&gt;&lt;/div&gt;&lt;div&gt;&lt;br&gt;&lt;/div&gt;&lt;/div&gt;&lt;/div&gt;" style="text;html=1;align=center;verticalAlign=middle;whiteSpace=wrap;rounded=0;" parent="1" vertex="1">
          <mxGeometry x="632.5" y="350" width="145" height="260" as="geometry" />
        </mxCell>
        <mxCell id="RvjIYHM76L2CF4vEMhgm-21" value="" style="image;sketch=0;aspect=fixed;html=1;points=[];align=center;fontSize=12;image=img/lib/mscae/dep/SQL_Server_Stretch_DB.svg;" parent="1" vertex="1">
          <mxGeometry x="200" y="100" width="40" height="40" as="geometry" />
        </mxCell>
        <mxCell id="RvjIYHM76L2CF4vEMhgm-22" value="business&lt;div&gt;intelligence&lt;/div&gt;" style="image;aspect=fixed;html=1;points=[];align=center;fontSize=12;image=img/lib/azure2/power_platform/PowerBI.svg;" parent="1" vertex="1">
          <mxGeometry x="896.25" y="205" width="37.5" height="50" as="geometry" />
        </mxCell>
        <mxCell id="qfh89xz0LXXDGOZRvZ7z-1" value="machine &#xa;learning" style="shape=image;verticalLabelPosition=bottom;labelBackgroundColor=default;verticalAlign=top;aspect=fixed;imageAspect=0;image=data:image/png,iVBORw0KGgoAAAANSUhEUgAAAgAAAAIACAYAAAD0eNT6AAAQAElEQVR4AeydB5zUxBfH395x9N57R6qAiPSudEVBOtKUaqFXEQEBKSIgCEhRkA4CoqLYqFJs/JWqSO+CgPRytP97C4fHcWU3M8kmmx+feZfdZObNe98Jm5eZySSE8A8EQAAEQAAEQMB1BBAAuK7J4TAIgAAIgAAIECEAwFkAAiAAAiAAAi4kgADAhY0Ol0EABEAABNxNQLxHACAUICAAAiAAAiDgMgIIAFzW4HAXBEAABEDA7QTu+o8A4C4H/AUBEAABEAABVxFAAOCq5oazIAACIAACbicQ4T8CgAgSwb31sHuZWcqztGDpx/IuyyyWL1g2sexm2cdy9p5c4u2deyKfI/ZLHskrZaSs6BBdfTlvc5ZyLFKX1MkfkWxOIKKNsSUCAzCw+hwI6M8DAoCA4tdeubRnPtbakGUIy6csf7JcZTnGsoFlLssIlh4srVmeZinL8ghLbpZU9yQJbyOSfI7YL3kkr5SRsqJDdI3kzPNYNrJIXVd4K3Uv463Y8jxv87KIjbxBAgEQAAEQsJ7AfzXix/g/Fk78lJqNlovw27xdx3KB5S+WT1jeZHmOJT9LAharU0KuUOquz1uxZQlv97CIjWKr2FyXv4sPvEECARAAARCwkgACACtpq9eVmFXUYZnIspPlNIt0w/fnbSUWuVPnja2T2Ci2is0r2FLxQXwRn2rzd/GRN0ggAAIgAAK6CUTWhwAgMg17fs7BZnVl+ZrlDMuXLK+yFGIJhnF28UF8EZ++Yp/ER/FVfBbfeRcSCIAACICAbgIIAHQT1aMvC6uRC6CM2R/gz+NZarJItzpvgjqJj+Kr+HyQPZXegcG8lbkHvEECARAAARAwRuDBUggAHuQRyG/S9d2GDVjPcphFLoAya1/ukPmra5P0Dgxi72X+gLARRsKKdyGBAAiAAAgYJYAAwCg5feXkAicz6I+wypksFVnQLgwhShImwkYYneBjU1lKsCCBAAiAAAj4QCBqFvlRjboP380nEMpVNGb5kUW6uOUZesyGZxg+puScrwPLFhZhKCyFKX9FAgEQAAEQ8IUAAgBfKOnLk5RVyYVrF28XsZRmQVIjIAyF5V5WI4FUSt4igQAIgAAIPEDg4S8IAB5mYsaeFKxUJrLJ2L50XctCOrwLSSOBnKxLhlL281ZYC3P+iAQCIAACIBAdAQQA0VHRt0+eeZfZ/LI4j0xkk9X09GmHpugICGNhjUAgOjrYBwIg4EoC0TmNACA6Kur74rOKbixyEZLZ/On5M5K1BGROhQQC8vRAd65a2oQ3SCAAAiAAAkIAAYBQ0CtPsbr/sYxjwYWfIQQ4peP6x7LIZMtGvEUCARAAAZcRiN5dBADRczGyV9a9l6Vtv+PChVmQ7EVAXkS0mE1axfIoCxIIgAAIuJoAAgD15peV6+TtettZlbzchjdINiZQjW2THhpps0T8GQkEQAAEgppATM4hAIiJjG/7K3O2rSz9WMJYbJs8Hg9lyZSaypfKTy80rEBv9KhPk0a9SIumd6XVy96grWtH0YEtE+jsXzO8cungLLpzaoFX5HPEfskjeVctfcNbVnSILtEpujNnTEUej+0XL4zHDSVtJm1XhT8jGSRw/OQZgoCBW88Bg/9tbFMsxDaWOMsQWYjmAzZ5DYvtHulLmiQhVSlfiLp2qE0zxnWgX74dTpcPzaKjWyfRhhWDac7kV2hov8b0ctvq1PjZMlS1QmEqWig75cyWjlKlTOKVJIkTsGt3k3yO2C95JG+1ioW9ZUWH6BKdovvYtsl06eBM+vmbYTR9bAfq0r4WiS1iE9nvXz42aTXLNJYULEggAAIgEGQEYnYHAUDMbGI6Iuvz/84HO7LY4lY3Q7oU1LR+OZrwdhva8v3bdG7vh7Tm04E0flgreqlFVSpZPDclShifzbUmJU6UgJ54LA+1e6EqvTe8tdeWf/fMoF+/e9v7vclzZSl92uRkk3/Shu3Zlq0sFViQQAAEQMAVBBAA+N7M0m08hLOvY8nFErAUGhri7cof1r+x96J6YscUWjD1NXqtXU0qUTQXyfGAGRdDxfHihdLjxXJ5ewQWTutCJ3Z84O2ZeKtvIypbMp8dbM7Bpq9lGcoibc0bJBAAARBwNoHYrEcAEBud/47l5I/rWd5kCWWxPIWEeKhyuYI0efSLdHz7FG9X/oDu9b0XVY9HbmItN0mpQvFHeiYG9mxAm756yzs88f7ItlSxTAGSY0rKjReWtn2Di29gyc2CBAIgAAJBSwABQNxNW5OzyEtnyvLW8lTwkSz07pAX+AI5mdYuf5M6t6lup+5zbTwypk9Jr7xYg9Z/PogO//Y+vTO4BeXPm1mbfj8VyfsFfuUytVmQQAAEQMChBGI3GwFAzHzktnoAH/6KRVaV4401KWGCMGrZqKL3Yrhrwxjq0bkuZcrgnnfcyNMKvV5+mv7YOMYb9LRoWIGEiTX079eSij+tYJFeHzkX+CMSCIAACAQPAQQA0bdlct79KcswFssYycS4wb0b0uHf36fZk172dodz/a5NHs/dYY+5k1+hQ9wr8Gav5ylt6mRW8pC2l3kfn3GleEqAISCBAAg4h0BclsoPXFx53HY8GzssY8DP8taSlDdXRpo6pp33Ijeo9/OULo3EH5ZU7ZhKJDga0uducDTlnZcod470Vtr+DFcm50R23iKBAAiAQFAQQADwYDPKErEbeZdseWNuyp41rffCL13dHVo9GYhubnMdNEG7PM7YqfVT9OemsfTx+52tDASKsDs/sZRkQQIBEAABmxOI2zwEAP8xqsMfN7FIDwBvzEvy3L6soLfnx3EkF355RM682oJTc1hYKLVqXIl2bRzjXf/Aol6TjExTHhWUHgH+iAQCIAACziWAAOBu273AGxnnTcpb01KC+GHU59Vn6C++8MsKevHj43FzVdjCVNY/EKYyWVICA1WdcZRPwsdlfkhr3iKBAAiAgC0J+GIUAgCiDgzqYxZTr8b1aj1OO34YTaPebE7JkyXi6pB0EkiZIrH3ccnt60ZT7SeL61QdnS5ZL2AmH3iZBQkEQAAEHEnA7QGA/IDLmv6mcZDufhmr/mx2L5LJfo48SxxktKwd8NWCvvT5nN4kLyYy0XR5NHAS65fHBHmDBAIgAAJ2IeCbHaZd+HyrPqC5+nHt8gMuP+T8UW/yeDzedfhlspqMVevVDm1xEXimZgnaxr0BFrCXxwQRBMTVIDgOAiBgOwJuDQC6cUuMYDElyap2Kxf29b6JT7qmTakESuMkkCZVUu+TAl/M7W32o5USBPSJ0yBkAAEQAAELCPhahRsDgDYMZyyLKalm1aL02+oRVLNqMVP0Q6n/BJ6uUYJ2/PAO1a3+mP+FfS8xirP2YEHyg0DmDGlIRfyoKtqsKnWjrFrb2YFftCeFi3a6LQBowW37IYv2bn+ZjS4L1Hy9qD9JDwDXgWQjArKQkPQEjH2rJZn4pMA77HJrFiQQAAEQCBAB36t1UwBQm7HMYtHuc7Ysabzr9ssCNawfyaYEPB4Pde9Uh1YvG2jWuxXk3JIA82mbIoBZIAACIHCfgPxg3f8SxB+KsG8LWLQ/6lepbEH65dvhVKpEHlaP5AQCFUrnp61rR1HVCoXNMFceEVzEiuWNgrxBAgEQAAHrCPhTkxsCgCwMZCWL9pe5yB3/qqUDSB71Y/1IDiIgKwd+vbAftWla2QyrE7NSWSwoB2+RQAAEQMCWBII9AJBXx8krXbPqpB8S4qHRg5qTjPljGV+dZK3VJSsxzpzQieQlQx6P9mkhmdibL1m0B56sEwkEQAAEoiHg365gDgDkF13G/Iv7hyT23AkThNGi6V2p9ytYDj52Us45+mav572PC0pAoNlqGWOYyzqD+f8Zu4cEAiDgRALB/MPUlxukAYu2lCRxAvpiXm9q+AyGd7VBtYmilo0qkqzWKG8b1GzS06xvAAsSCIAACJhKwF/lwRoAPMkghrFoSymSJ6ZvP3mdnqr0qDadUGQvArWqFaOvF/Uz410Ng9lTedskb5BAAARAwB4EgjEAyM5oF7KEsmhJaVMno9XL3qByTzyiRR+U2JeAPNXxzeL+pHkFR/l/Noe9zsWCBAIgAAImEPBfpfww+V/KviXEn9lsXloWLUnu/Fcu7EcliuK3WwtQBygp83g+7gnoT8mSan1rY2p2XR4PDOMtEgiAAAgEnIBcMANuhEYDZKxV23NdiRPxmP/c3lSyeG6NJkKVEwiULpGX5H0OMu9Do71PsK43WJBAAARAQCsBI8qCKQAoxQAGsmhJCROE0Yp5valimQJa9EGJ8wiUL5Xf+8SH5qcDJEit4DwasBgEQCDYCARLAJCUG0Yet9LSvSrP+c+Z/IpZK8WxqUhOISAvEJr2bnvyeOSpUi1Wy9wUmQ+A9QG04IQSEAABImMMgiUAGMHu52PRkkYObIZH/bSQDA4lrZtUooE9G5DGfzlZ12gWJBAAARAIGIFgCADkofzOugi2e6EqFvnRBTOI9Azu/Ty1alxJp0ftWZk8rsobJBAAARAwTsBoSacHAAnY8Y9YpFuVN2pJXg4zZfRLakpQOigJeDwemja2HckTApoclDGFyawrIYtr0/GTZ0hFVMGp1I2yam1nB36q54/Tyzs9AOjPDVCIRTnJK30XTe9CWNtfGWXQKkgQP4yWzeqh81XCsrCEtomrQQsejoEACMRCwPghJwcAMuYvAYBx7++VlB/2JR92J3lD3L1d2IBAtAQyZUhJ86a8qjNQ7M0VFWRBAgEQAAFLCTg5ABjDpOKzKKfxw1tRqRJ5lPVAgTsIyFDRsP6NdTkrT66M1aUMekAABNxFQMVbpwYA1djpeizKqfaTxaljqyeV9UCBuwjI2yCrVZSX/WnxuxZrqcuCBAIgAAKWEXBiABDKdMazKKf0aZPTzAmddD7jrWwTFDiDgKwVMfv9lylNKlmCQovNck7LpFYtyqAEBEDADQTUfHRiANCBXVZ+JZ/H46HZk16mDOmwHgvzRDJAIEum1PTBmHYGSkZbJC/v7cSCBAIgAAKWEHBaACCPTL2ug8xLLapQzarFdKiCDhcTaPhMaWpUr4wuAgNYkbYuBdaFBAIgEMQEVF1zWgAgC/5kVXU6Y/qUNPrNFqpqUB4EvAQmvN2aUqVM4v2s+Ccdl3+ZBQkEQAAETCfgpABAfmH76iAyaVRbXT/YOsyBDocTkIDynUHaAso+jCM5CxIIgAAIxEJA/ZCTAoBX2d0MLEqpXq3HqUFdeXGgkhoUBoEHCLzYvApVLqflcf40rLgrCxIIgAAImErAKQGAzI7urkpCXus6ZvALqmpQHgQeIuDxeOi94a0pNFTLf6luXAHmAjAEJBAAgegJ6Nir5ddKhyFx6GjDx5Xv/rt3rEP5cmdkVUggoJ9AscI56KUWVXUoTs1K2rIggQAIgIBpBJwQAMhLU5S7ROWZ//5dnzUNJBSDgBCQFQJTpkgsH1VFerziqSpBeRAAgWAkoMcnJwQAskKagO/V2QAAEABJREFU8uDqoN4NKUVyLT/MeshDS1ASkPdJ9HlVyyKVuRhQfRYkEAABEDCFgBMCgB6qnufMlo7a6emaVTUF5V1A4LV2NUl6nDS4qnzua7ABKkAABGxGQJc5dg8ACrCjVViU0sCeDUgmACopMVj41OkLtHTFzzTknaXUrONEevyp1yl3ya6U+pF2FD/LC16Rz7JPjjXvNJHeGrPUW+afMxcM1ho8xZzIL2mShNT3NS29ALLCUFCvVpU5QxqCgEGgzoHg+aU05ondAwBZZ1XmABjzjkvJpL9WjSvyJ+vSr7/vpx5vzqFHK/WhjIU7UcMXx9Hgd5bQwk830f+2HaADh0/Rv+cu040bt7win2WfHFuwbBMNGr3EWyZDoU5UtHIf6jloLm3ZesA6BwJcUzDw69y2OmXOmEoHyfY6lEAHCIBAsBDQ54edA4D47GYrFqXU6+WnKV48eX+Qkpo4C1+8dJXGTvmSClfsTU/UGEDjPviKdvx5hO7cuRNn2ZgySNntfxzx6i1Z/XUqwrpF76XL12Iq4tj9wcYvUcL41L1THR3tISsMJdKhCDpAAARAIDIBOwcA9dlQWRqVN8aSjMO2alLJWGEfS8ndu9zd53y8i/dOfdfuoz6W9D/bTtYtPQs5S7zmHSY4d/6K/0psViKY+bV/oRolT6Z87U7JTdaIBQkEQAAESCcCOwcAL6o6+nLbGpQwQZiqmmjLy935zAVrKX/ZHt7x/bP/Xoo2nxk7z3BdMkyQv2x3+njReqVeBjPs80WnG/jJUyftOAjwhUccebAmQByAcBgEQMB/AnYNAOTOv5r/7vxXQrpgX36x+n87NH7ad/AkVao3hF7sOpUCOVFPJsi1eW0KVX72Le+8Ao0umqrKTfy6tq+lYwhKurEymdooUA4CIOAAAnpNtGsA8Dy7qbQISqN6ZUieyWY9WtPylb96x/g3/LRbq14VZT/8+CcVr9qPFn/2o4oaS8q6jV/2rGnp6eqPqbKV/6cNVZWgPAiAAAhEJiA/LJG/2+Wz8phnuxe0LMl6n4d0WfcePI/qt37XO4P//gGbfLhw8So17TCB+g1dYMshATfza9/ySR1nSWMdSqADBEDAuQR0W27HAEAW66+s4miBfJmpQun8KioeKHvz5i1q130ajZm84oH9dvsiF9lREz+nVq9M9j5eaBf73M6vVrViJD0Biu1RnstnZ0ECARAAAS0E7BgA1GPPlJ7ba/9CNfJ4lJYPYBPuJnlWv0HbsfTR/LV3dzjg79wlG6jhS+NsEQSAH1FIiIfaNFWKaeWs8/Af+b/BGyQQAAH3EdDvsR0DgDoqbsqPbdP65VRU3C8rd9Qdek6nL7753/19Tvnw+ddbqG3XDwI6HAB+/50tmhajqvWfRnwCARAAATUCdgsAZPGfaiouVSxTQNcKbNRnyHyatXCdijkBLTuPewL6D1sYMBvA7z/0eXJmoMcezfnfDmOfZGJLQmNFUQoEQMDJBMyw3W4BQAV2MhmL4aTr7n/JFz/ZfszfF0ij3/+CPv3qF1+yas0Dfg/jbPysLO3/8H4/9sjrLOWRQD+KICsIgAAIRE/AbgGAUhdnaGgINahbKnpP/dgrz6nLpD8/itg2q3TDv9RtKh088o9lNoJf9KgbP1tWx9yU2tFrx14QAIHgJWCOZ3YLAJSelyrzeD6S5X9VUMkFUxbXOX/hiooaW5WV5XbbdrFmPgD4xdz0uXOkp0cLZiPFf0pDZIp1ozgIgEAQEbBTAJCUuRZlMZxqP1nMcNmIgjMXrCM7LfITYZfqdu3GXTRv6UZVNXGWB7/YEckjgbHniPNoEc4h7wfgDRIIgIAbCJjlo50CgNLsZDwWw6lWteKGy0pBuVPuN3SBfNQuyZLEp6Z189PUoU/Rj4ub0YmNHenq9i5ekc+bFzWlD956iprUyU+SV7sBrLDXoLlkZs8G+DHkOJKGAED+z5aNoxrHHD5+8gxBwCBQ54Bj/qOYZKj8mJik2m+1stCJ34UiCmRIl4JKFM0Z8dXQ9r3pK7Wv7Z8pXRKaNKgaHdvQgeaOqU0vNSxCJR/NQOlSJ6KweCFekc9PFM1I7RoVoXnv1vbmlUAhb3a9N3on/zlP73/4DZn1D/ziJlu+FAd4SZXfEKjnOde4zUUOEACBgBMwzwA7BQBKP2pVKxRWmmB18dJVmjhD38UxUcJ4NLhLWfrzmzbUsWlRSszffW1GySuBwvYvW9HbPStQgvhK6yI9UO34qSvp0uVrD+zT8QX8fKMYP348qlyuoG+ZY84lT8vEfBRHQAAEQMAHAnYJAGSVs1I+2BtjlnJPPBLjMV8OTJ+zmnS90lfu3KVL/43OpSlJIuOvI5Yegj7tStL3sxpShjTyBJgvnsSe5/TZizRj7prYMxk4Cn6+Q1M9V7mmkizyf4Y3SCAAAsFMwEzf7BIAZGMnU7EYTuVLqQUAH2pa6rdYgXS0fn5jKvJIWsO+RC1Y9rFM9OOSZlQ4X5qohwx9/2i+/gAA/HxvCtVzlWuSCbO5eYsEAiAAAoYJ2CUAKGrYAy6YjMdUixbKzp+MpV9/30+7dh81VjhSKbnzXzmjPqXXdLceSTVly5iMvpj6nJaegO1/HKHfdxyKrF7pM/j5h++Jx/KQDAX4V+qh3I8+tAc7QAAEgoyAue4ERQDweLFcFC+e8XHy+cvUH4+TMf8lE5825eIfcQpkz5SMlkx8RsucgPkaHwkEv4gW8m2bKGF8Kl4kh2+ZY86lFDTHrBZHQAAE3ELALgGA0t1MscJqP6bfrd2u3N59Ozyhtds/JoNkOODNV5WXlKXv1m2LqQq/938Hfn4zUz1nuUKl/zNcHgkEQMDmBMw2zy4BQGEVR1W6/0+dvkA7Fbv/5VG/7m1KqLjgV1mpK0/2FH6ViZp5267DJBMCo+739zv4+Uvsbv5HC2a/+8H430LGi6IkCIAACBDZJQDIpdIYKsur/vDjn8qvzH3j5dJKs/399T1+WCj1bveEv8UeyH/79h0S3x/YaeCL6JDlfw0UvV/EjfxUgtZ74HLy1sOCBAIgEJQEzHfKDgGATJeXWc2GvA0J8VDhAlkNlZVCO/44IhvDIqv2tXzO+puxZk/np6SJjT9iKA6r+q5Dh1v5qQStwp1FngtNz1skEAABEDBEwA4BgNzJGDJeCmXKkIoSJ0ogHw3J7n3HDZWLKFS3Si6ShXsivlu1TZIojGpXzqVU3e59J5TKS+Hd4CcY/JbUqZKSiN8FHyyg9H/nQVX4BgIgYCcCVtji+AAgZ7Z0Spz+UrwIVi0jSxgomWC4cDXFulV9F8NVdbiZX67saucu81eLAFkBEgiAgHsJ2CEAUJrCr/ojevrMRaXWL5Zf+UfccP3FCqjVreq7GK6qw838VINX5q88k5B1IIEACNiOgDUG2SEAUBrHzKl4F6W6Ln7OrMmtaaloasmZRa1uWb8/GrV+7QI/v3A9kDlXdqVTX3SllT8QEAABEDBCwA4BgNL6tpkzKq0gTBcVX4yTPGl8I9y1lEmRzPjcBzHg4iX1lwKBn5A0JlkzpzZW8L9SCAD+Y4FPIBA0BKxyxA4BgNKPWNrUyaxiZbt6VN8SeD38hrJP4eE3lXTII41KChxcOI36uasUPNsBXeYMaUhFVH1QqVvKqtavo/ziRQuVGIofTpNPFi/Sgc71OuwQACj9iKVJpRYAJEuSUOkkuHApXKk8CgeOwPmL15UqT5ZU7dzRELwqBc9KzqOwbQhs3qy+lLltnPHRkE2bNviY04nZrLPZ+QFAasNLCHgpJ1UMAA4cOe/Vgz/OI3DgqFrbJUuaSMnpNKnUzl2uXHkMgXUgOZzA5o3uCwDc6LMZp6kdAoAkKo6lTqn2I5o2jVoPwtbdp1XMR9kAEtj6p1rbqZ47GoYAZDGgABJE1YEmcOzYUTp8WN+bPQPtj6/1i89Hj6ot4uZrXVbns7I+OwQASrPoEiQIU+L1SJ5MSuXX/IiTUAlgAAuv/vGwUu2q5468FVDJACK1WaCKlaN44AlscuHdfwT1zZs2RXzE1iABOwQASj9iCeLHM+j63WL582S++8Hg3y/X7qdLV9Qn0xmsHsUMErh89QZ9vf6gwdJ3ixXIq3buqJ67bIVS8MzlkRxOYJOLx8KDc+6DtSekHQIApR+x+IoBQJGCaiv5ycV/0Ve7rW011KZMYP4XfyoHboUV3kEhDqj2XrEOpeCZyyM5nICbx8I3bcBEQNXT1/kBQJhaD0ClsgXI41F7qdo703+lGzdvq7YFyltE4Hr4LRo9/Rel2uQlVJXKFlTSEV/x3OXKEQAwBLcmt47/R7S3zAMQBhHfg2FrtQ92CAACakO6NMmpiOKd3N7D52jcrP9Z3XaozyCBsTO30IGjFwyWvlusWOEcpDqLPzRU+dS/c9ca/HUjATeP/0e0NxhEkDC2Vf4FMlbtA6WUlqMLv6G2EI1YUr1KUdkoyZCJm2nzb+pv11MyAoXjJLBxy3EaOumnOPPFlaF65UfjyhLncQ3nrtL/nTgNRAZtBO7cuUODBg6gEW8PpStXrmjRizFwIl1zIKRNhg97iwa+0Z+krbQ0kN9KrC/g/ABAcSU6Qd68QXnZKIl0Kzd87Qs68rfay4WUjEDhWAkcPnGRGnddQeE3bsWaz5eDzZ/XcM5cV548etUXW5EnsATkgiIXlunTPqCJ742nCuVKkY6V7Nw8/h/Roj9uUn8S4Ltvv6YqFcvRpInv0YfTp1GfXj3o9m13DOnaIQBQ+hEL19AD8HixXFQ4f9aIc8rw9uSZK/R0h+UIAgwTNK+gXPylbaSNVGspWig7yRCAqp7r6sGr2lKGqg6gfJwE5OL/xoB+9NGM6ffz/n3iBHV97WVq1qQh7du79/5+fz7I2PehQ2pPsfhTn13zCgNhYcS+vXv2UJNGDah1yxYUeU2BeXNn0xuv97O8J8CID6plHB8AXLumfBflZfhi8yrereqfnXvOUJmGCzAcoApSY3np9i/TaAHt2ntGi1Zd58p19ABoaQ+7Kom4+M/8cEa0Jq5bu4aqValoaFhgs4Y732iNcuBOf+cBXL58maS7/8mqleiH9eui9XjWzA9pQP++QR8E2CEAuBZtC/i48+y5Sz7mjD1bh1ZPKk/qiqhB7jKfarOERk3/RUt3c4RebP0jEM5d/SOm/kzV2y6lU9w741/p6HPLpNF2L1SL/qCfe89dUB4LVvq/46e5yO4Hgbgu/hGqbtwI9w4LVCpfhlZ88XnE7ji3m1z8/H9UOP7Mhfj8s+VUqUIZb3e/sI+qK/J3a4OAyDVb99kOAYDSEMDZf/UEAPJOgC7ta2kjfz38Fg0Yu5GK1J1NMz7ZQbLwjDblUBQrAVmbYfri7VS4zsc0cPwmrUFYt461KUniBLHW7+vBM2eV54uoPcrgq6HI5xcBXy/+kZUeP36MOrRrS00bP+/TsADG//+j5wsL6e5v3LA+derwEp04fvy/wnF8kiDgjdeDtyfADgGAUl06sI0AABAASURBVL/s2XOX42hC3w93aV+b0qdN7nsBH3LuP3KeOr35PWWpMI2a9fiKpi3aTj9v+9t7Ryp3qD6oQJZYCAhDubsXplMXbqOm3b/0su48aJXyo35Rq82UISW9+lLNqLsNfz+r3nt10nDlKGgKASMX/8iGrF+31jss8PbwoTE+LXD82DGSse/I5dz8WVjENA9AuvuHDR1C0t2/4Yf1hjDN/OhDMjsIMGSYhkJ2CAB8D8eicVjDXdR9rSlTJKbRg1rc/67zg9yVfrLyL3p58Coq12QhZeaAIHHRiRSv4HglUbXRk74ZqYhq/ar+C0NhKUxfGbKalny9x7TeljGDX6DkyRKpuny//Jmzyr1Xf99X5tAPx0+eIRVRdVulbikbuX7Vi3+ELumafn/CeIppWGDTpo0RWQ1vD36al+5sLmgLEVsMO3Kv4OZo5kREdPdPfn8CCdN7WQ1tgjUIsEMAoPTw/LG//zXUoDEVatW4Iqmu8BaTbux3LoGqFQpTswbltDpw4qTyuYseAK0tYlyZrot/ZAuOxzAssElx/D9X5jDKkVHtJWqR7VT9LLaITSp6IjMx2t0fV/3mBQFx1WzecTsEAEo9AIeO/KOVjsfjoTmTXqbUqZJq1QtlziWQKmUS+nB8B+Ulo6MSOHjkdNRd/n53fA+Avw7bMb9c/OU5/5hm+6vafHdYoIJ3kZpLly6RL2PesdVZtUSS2A4H5FjlxxIr1SvrAVy9epXefWcUPVWtMhnt7o/LCAkCZJ0AafO48jrheIgNjFQLAI4q/4g+hCB71rQ0fWx77T/4D1WEHbYn4PF4aNaEzpQre3rtth46qhy8ogdAe6v4p1AuBHLxj/ycv38afMt948YN7yI1FcuXVh7/r6R4sfXNYv9yVVEMSg4ePEDlSj9O744ZTeHh5i6PMU/WCRjQT9sjgv6R0pvbDgGA0hDAIfW7qGiJNqhbivq8+ky0x7DTPQRe7/Yc1av1uCkOHzysHAAcNcUwKPWJgFUX/8jGnPxbvdOnSgm1u+3I9uj6rMOmkyeti4elt0cWeNLlf6D02CEAOKLi/JHjZ+h6+A0VFTGWHfFGU2rVuFKMx3EguAm0aVqZhvZrZIqT4eE3Sc5dBeXyIqC/FMqjqAKBQFz8Fcy9X1TG2mXM/f4Om3wQm3Jmss+8BF+wSBDgS77Y8wT2qB0CAOkBOGcUw82bt+jPPUqjCDFW7fF4aMa4DqbdAcZYMQ4EnMCztUqaOgz01/4TdOOG0jsJ5P+N8kICAQftQAOcevEX1FUUu9pFh1lSxYY9E2b5ahe9dggAhMUf8seo7PzTvJ7QsLBQWjazB7V7oapR81DOYQSk1+eTD7tRvHihplm+fZdSx5fYhbt/oWCxyMX/zYGvP7C2v8UmKFVn54ts5cfsNzlRCbYPhQOdxS4BwC4VEDv+VP4xjbX60NAQmvZue+r7Wj1MDIyVlLMPejweGtC9Ps2a2Ikk8DPTm527lYNWBABmNlA0uuXiLxP+5I1x0Rx2xK7KNpwAGAGu6uP2m5sQYVuwboMiANi267Dp7ePxeGjkwGa0bFYPksfCTK8QFVhKQB77XP5xTxrWv7ElQd62XYdU/UMAoErQj/IRF3+zZ/v7YZLfWe06/h/hiBPnAUTYbmwb+FJBEQD8tGWvZY9kPFe7JP1v1QiqXK5g4FsPFmghIIv8SJuaNds/OiPlnI1uvx/7dviRF1kVCMjF38nd/hGuV7Hx+P9/NqIXIIKFFdugCABOn71Ie/arPx7jK/Cc2dLRmk8H0pzJr1DG9Cl9LYZ8NiMga/vPm/IqrV72BuXImtYy6/YdPEmnTiu9x0eeAPjVMoNdXFHExd/J3f4RzVfFAZPsqjggSIngqbq1Q3m7BADSh39KBciPW/aoFPe7rMfjoRcaVqA/N71LQ/s1prSpk/mtAwUCQyBdmuQ0/PUmtHvzWGr+fHnLjdj8q/K5epCNVnqJFpdHioNAMF38xVU7j/+LfSJOsFHsDBaxSwAgPDfJH6Oy6ZfADImmSJ6Y3uhRnw5smUDjhraiRwtmM+oCyplMoGih7DR+WCtvW8kCP8mS6nuxjz+mb/pZ+Vz91Z/6kNd/AmZe/DOnjUfv98xIWdPH898wgyXsPv4f4ZasBSAS8d3sbfYMYTS5d0aSNjG7rgf12+ObnQKAzSpIVq3fqVJcuWzSJAmpW8fatG3daPpt9Ujq/cozVLxIDgoJ8SjrhgJjBIS9tIGs6Pj7mpG0de0o6tqhNiVJnMCYQk2lVv2gPHz/iyZToCYaAmZf/FdPykGvNExFfyzMQ71bpKGweOb/Rjipa72KBUMV8cM81L9VGtq1IDd1bpCKpE3cGATYKQBQ6gHYe+Bv2n9IaRQhmp8CY7vkojN6UHNvIHBy11TvkwMyTCDdzSWL56bcOdJ7XzYUP751dwDGPLF/KWEoM/iFqbBtwcMywlqe1jj1xzRvG4x6szkVK5zDFs4cOHyK/tona/gomYMeACV8MRe24uKfP3t8rwFJE4XQ6FfT09Y5uejJkuY+A2/FRZU0/ats8noANUonoW1zc9PbndNTEm4DMVvaxMogQOq0g9gpAJC7GqW3OHy7dpsdmD5gg8wNqF/nCe8wgUw4++Xb4bTvl/fozO7pdP3oHLpzaoGSPFCZgS9Or18YCkthKmznTn7Fy1qYp7HhGx2/WaPlHF3NTS0TAXUIqzKeMmdIQ8EkWTKm9b50xziR6EtmSB2PvpuQneRCEzVHwZwJ6PuJ2enzd7KRdElHPa7je2UbP/8f1T+zbM3MQy8fv5mZvhkffTtI26ydnIOypHPPjZmdAgC5+P8W9WTw5/s3q7f6kx15QcByAt/qCQAstxsVGicgF551U3JQoVyxDz09UyEp7eQuad3DAk4Z/48gLPbqnAcg3f39uLv/r8V5qFXtFBHVRLvNly0+rXo/h8lzAqKtOiA77RIAZGXvX2fJyWI4fbduO125KnGEYRUoCAKmEZBz0469VKY5DMXeC4l0Lee/1+0fF5LIwwLVNA0LVHHgo3W6egGql7rb3T8iUnd/XG0gbSVtJoFbXHmdfjzQAUAVBvgly0GW4SwZWQyny1eu01ff/264PAqCgJkEVq7aSnKOmlkHdNuHgFxA5EIiFxR/rZJhgVU8LLBwaBalLumMaeJRs+rJ/a0+4Plb1ExBmbjL3qgh2TKE0SfDs9C370Xf3R+XXmmzNZPM6QmIq24rjwcqAKjFTsqkvzW8rcMSyqIlLfniJy16oAQEdBPAuambqH31ycVfLiByIVGxsslTyenPRXmol59PC1QpkZgWDctCh5fnJbkLVrEhEGXF5kOf5qXFfBGXdwR4fHxQIqK7/w8eSmlYTS3weYR7baQNpS1NZOCjZ+ZYYHUAIOvnrmRXRMryVnv68rvf6Oq1cO16oRAEVAjIObni2/+pqEBZhxCQC4ZcOOQCosNkGRZ459X09PvsXBTbsEDyJCH0asNUtHN+bpL6Gz+Z3JJHDMmkf/J4ZCO+iK/mMXnx6bVGqSlF0pgvWU89kYRkdr8/3f1xmS5tKCylTePK69vxh3KN5z0BCwJipslWaUwy++Vt1idToOXunz+aky5dvkbLv8JTUubQhVajBOSclHPTaHmUcwYBuVDIBUMuHLotlkmEMiyw4K0HhwWK5UtIH/TNSMe+yEcTe2aMc7Khbrus0CdDIhN6ZKBjn+ejaf0yUXH2OaJe6e6XnoKYnrKIyGd0K20pbSpta1RHLOW68LGABQFWBADF2cGfWfqzWPJ8xUfz13JVSCBgHwIzF+CctE9rmGOJXCDkQiEXDHNquKu1KY/pyyJCo15JTxun5fT2DHR8LhVJT8HdHMH7N0miEGr/bEr6jXtDNk3PSdIzIt39jbinwEyvpU2lbaWNVeqJoWzAggCzA4CW7LCM9RflrWVJVlqzy6JAljmNimxL4NDR0yTnpG0NhGHKBCKe85cLhbIyHxQkSxxCfV5IQ+UeDcxy1j6YaHqWskUSeedGSFBgemVcgbStiesESBAwhavxsFiWzAoA4rMHH7DMZrH8DJXVvD5etJ6rRgKBwBOQu//bt2XNnsDbAgv0E5C7wvU+POevv2ZotJqArBMgcxKkzf2vO84SHTmHpcMBZgQAidmJ5SziDG8Ck6bPWUXh4TcDUzlqBYF7BG7cuEUfzpOHXe7twCaoCFh95x9U8BzqTDD1BOgOAFJym37HUpsloOnEyXO06DOl9wsF1H5UHhwEFi7fREePnw0OZ+DFAwTkLhB3/g8gcc0XIz0BfsCRm+dxnN/04QCdAYDc+X/BRpdjsUUaM2mFLeyAEe4lMHaKrHPlXv+D1XPc+Qdry/rul8k9AV3ZEtPnBOgKAGTMX7r9K7DRtknbdh2mtRt32cYeGOIuAqt/2Em/7zjkLqdd4C3u/F3QyD666HtPgI8KH8xmek+ArgBgBttdncV2afg4iUtsZxYMcgGB4eM/dYGX7nJRLv7yOJjc/bnLc3gbEwE5F+SckHMjpjwK+6UnYByXN2U4QEcAII8vyON+bKP90vfrt9P6zX/YzzBYFNQENv68m6QHIKiddJlz6PZ3WYP74a4EAbE9IuiHquiyShBgynCAagBQnq0dw2LrNGTMUlvbB+OCj8DAkZ8oO5UkfSbquPUsdd51CeILg50X6dEXOitzj06B3N25ZcLfzVt3aNeB67R41QUaPOMf6jDyBNXrfYTKtDtI2Z/bS6lr/HVfElf5kzxl/6A0Nf+iRxrvo7LtD1Ldnkeo1VvHaehHp+mT1Rdox/7rFH7jTnRYg2qfE4cDVAKApNx68px/GG+1J09ICGWvVJMKNGilrFvuxNZtQi+AMkgo8ImAzDtZs2GnT3ljy1SkeQcKCZPpNbHlwjEvgTt3aMOIPrR9rtwoefdo+yMXf+nilbs8bUptpOjUvzdp4XcXqP2IE/RYqwOUpOpuKtx8PzV54xgN+fA0Tf/sHH2x4RL9tPMqHTl5g/69eOu+XL1+x+vJ2Qu3aM+RcPpxx1X6atMlmrPyPL05/R9qPOAYPdpiv1dnwab76MXhJ+jjr87TvmPB+b4WOUfkXJFzxgvG+0fbH+kJ0DocoBIAvMNu5WbRmsISJaFibV6j5iu3Ut0PllL5fqMofrLkynX0HjKPsBiLMkYoiIOAnGO9Bs+NI1fch+MlTEyFGr8Ud0bkIMLF3++z4OddV6nXxJNUrOV+ylh3DzV78xjN+Pwc/b7nmil369Kr8OehcJq54hy1GXqc8jbc5+1N6DL2JK377Qrduu23C7Yt4KQgwGgAIF3/HXW3QI4qtanJF79QuT4jKHm2XF718ZMmo8Iafgh/+W0fzVu6wasTf0DALAKzF6+nLVsPKKvP/2xzSpgytbIeNyjYNLo/7vx9aGi5AA/iu/J8jfZR6ZcO0rvzz9K2vdclfvKhtP4s0psw8ZOzVOXlQ5T56T306pi/vfbor8l6jZGDABNql54AuQFXVm0kAJCpZ2NhAAAQAElEQVQy47lmD4uWlChNeqr53nyqM/kTSpY5+0M6ZVxPR1fo68MX0pWr1x/Sjx0goIOAvO1vwNuLlFXJ8FfRVq8o63GLgpD48rJRvd5KF6505coPuV7N1mq7zXfWKzZeomqvHiLpgn+Lx+X3HrVf97sMQ0xa+q+3R6J8h4PeIYTrDp83IOeOnENyLpnQ6lqWuZWLub+2vcAFSrJoSanzFaLnF62l3NXrxagvSYbM9MjTjWM87usBWZFt5ITPfc2OfCDgF4G3xy+n43//61eZ6DLnrf08pcyVL7pD2BcNgcc79aGkGbNGc8TYLvnBlh9u+QE3piHwpa6F36Fpy8/xWP4+eqbXEVqz5UrgjfLRgk3br3onEeZ5fi+9v+RfEl98LGq7bI9kj09yLsk5pdG4o6xrGIty8jcACOUaB7JoSdnKP0n1534f7V1/1ApKdOxDIfHU5xuOmvg57dot/KLWgO8gYJzAjj+P0JjJK4wruFfSExpKJTv3v/cNG18IyLyhcv1G+pLVpzyD26Ujp1785Y5/7tfnqUCTfdRx1AmSbn+fnLZhpmP/3KTX3v2b8ja8GwjcuHl3wqENTY3VJDmX3nwpbax5/DzYg/NfYlFO/gYAjbjGvCzKKXvFGlTng6U+T/BLkT035X+uhXK98oKgjr1mYEKgMkkoiCAgE/869JhON27cithleJu3dkNKmfsRw+XdWjBPjecoa7lqWtwfMfs0Rcxu16LQIiXf/3KZSrY9QC2HHKdDf9+wqFbzq4kIBIq1PEDio/k16qtBNF25dptGfHxGPuqQ71nJJyxakr8BQF8dtabJ/yjVGDubQkLj+aWuZOe+FBpffbxvw0+7adqcVX7VjcwgEBOBDz7+njb/uiemwz7v94TK3X8/n/Mj44MEKg54l3TMFTpw/AaN5CDgQe32/Sbj540GHKPqXQ7Tb39ds6+hipb9cfC618eGrx+lo6ecE+C8zRd/TQFZOCN8jUVb8icAeIJrLc6ilGRxkzpTPqGwJLKMgH+qkmbKRgUbtfGvUAy5+741nw4cPhXDUewGAd8I7D90ivoNXeBb5jhy5X+2Bcb+42AU22GZN1GsjZ7fx9FzzzjiWfUF313gcf79tGT1hdjQBNWxpWsu0qMtDtC8b87b3C/yro0wZp62u/9x7PCfLNqSPwGAlitvlWGTlSbslOzUl+TRQFUCFy5epVavTKZbwfQAqioUlPeLwM2bt6jly5Po4qWrfpWLLnNY4iRUuuub0R3CPj8I6JoQKBPPuo476UfN1mY9c/4W1e97lJq/eYxOn1MferLWevXazl26RS8MPk6y0JCwUNdojobX3v2bND3NcIQt1DLxj/XcT74GADL7rtn9UgY/5K3TkLJXUHtnkDwy+DgHAQZNeKCYDAWMnPDZA/vwBQR8JSCz/jf98pev2WPN91j7npQ4XcZY8+Bg3AR0Tgj8cuMl+mz9xbgrtTjH/3Zf8471L7ehbRaj8C41XKL1Adryp/2GPpatvUjf/HRZF5KerEjLxD/Wcz/5GgBU5BKpWAynBMlSkKzqZ1hBpIJFW75MKbLrWYRQ3hPw8//2RdKOjyAQNwEZ8x869tO4M/qQQ4a2irV+zYecyOILAZ0TAru/d9JWEwJlGd0KHQ/SwRPOGQP3pc1U8hw+eYMqdjroXTtARY/OsjLxr/t4bT1IWif+RfbT1wCgTuRCRj7L2FzitBmMFH2ojEz0Kdd3xEP7jeyQmduN2o2n02ftF+kb8QdlzCdw6vQFasznjAwB6KitbK9hFC9hIh2qoOMeAZ0TAuWpgHtqA7aRx/u68QVFltF14hMKZoMTJvICol4TT5KwMru+uPQPn3WGJDCJK58Px7VP/Itcp68BQO3Ihfz9LBfsQo1f9LdYrPlzVq1L8ihhrJl8PHj46Glq3nEi5gP4yMvN2WTOSLOOE0gWldLBIVuFp0gW/tGhCzr+I6BzQuA7c89QIFfPk3X05eL23qKz/zmIT9ESkOWNWw89ToFcM+Cvw+H07vwz0dpnYKf2iX+RbfAlAEjBBQqwGE55azUgGbs3rCCGgpUHv0cyeSqGw37t/m7ddnpz1Cd+lUFm9xGQ5aTl7ZI6PJcX/lQaKP+/dWiDjqgE5LHhZFlyRN3t93eZEPjqmL/9LqejgEwgk7fyOWHGuw5/deiQhZDq9zsasKEb6amRdtPgi6xYp33iX2S7fAkASnABX/JxtuhToSYvRX9Aca+MnZbqOkhRy3/FR7z3GS1Ytum/HfgEApEIzF2ygd6ZpL7aX4TKJ14bcP+lVxH7sNVHQAKscr3f1qJQJnNZPSFQurVrdz9MMplMixP+K5FJZz9wsfdYurA8xyLLwGfhbep7IguzyE2iRFrymLisxtSej41hkf8sB3lreZIJnE/3OmL5MsLyiOLKzYJNi8vdWYs2ZazroeTLhf3xh0r5sSNR6rSUsXhpP0r4l/XRFp0oQ7FS/hWKIfedO3eobZcP6Icf/4whB3a7lcC6TX/QS92mkpwjOhikLViM8MIfHSRj15G7xrOUrfyTsWfy8ajc2clF2cfsStmk27/JG0etXsNfxpu/Z8PlwlOYtylZKrF0Y5nI8hnLFpbjLP/eEykjixAc5u9bWdawzGDpzfIMi7zWVV7UIE+RfcjfT7NYklb/epkaDzhq2XDA5au3qcd7MvFPi3vfsZYlLKYmXwKAPCoWZClTheTtZio6YisruqsMnUShCRLGls3nY9fDb1D91u/SX/tO+FwGGYObwJ97jlODtmMpPFzLC7i852q1EdP8XgkzuCmb512F18doWSFQZt5bMSGQ70Oo/YgT9MUGU2/+IoDLAvvr+UsrlnQs8pz2eN7uYtG1wMAx1rWQpR1LRhaJyD7mrfoCGqwktiQMZeKkFRMDh8867YiJf5F5+RIA5IxcwN/P6R+VHiN/S/mXP3XeglSmx1v+FYol95l/L1GdZqPoxMlzseTCITcQkLf71W0+is7yOaHL3zLdh1CaR+QGS5dG6ImNgEwILN5WerBjy+XbMSsmBPabfIpmfWn6KnfyekDp2i/InldmmcMid/K8MTVJULGaa5CF5aRnoBd/lh4F3piT5n97gfoyU3O039W6Wyb+Lbg7SfPuHqW/Y7n0bhbTky8BQHYVK9LkK6RS3OeyRV/oTDKj2ucCcWTcd/AkVW84HI8HxsEpmA//c+YCVW/0Nslyv7r8lBfWyDoWuvRBj28ESnTsTTJnyLfcMee6Fn6Hupq4QuDsledJliGO2QLlI3LXLXf40rMrXfuWXGhisFqumO/yMbFFIjTTZlrKcrwyOZDrMiXJin/hN6QzRVm9BEOmTvyLbKEvAYDSAkDJsip1IES2NfbPHg9VG/4ByZyD2DP6fnTn7qNUq8kIOn9BgmXfyyGn8wmcO3+FajYeofXV0QlTpqZqb08l4nOV8M9SArJCYPm+I7XU+dWmS2TGKnzb912nzqNNuwaK70v4Tz4WGeM3tSKuw58ky/jJHIP8XEgCAlNWOZJhlV/+kPiHa9GY5D0M3/0cseKfsuLMrGEry4csLVmysZiWfAkAEqvUnihVWpXifpVNnC4jVRk6mXT+wG7ZeoDqNh9Nly7LOUr45wICsra/dPv/tv2gNm9lroqM+8vLsLQphSK/CMiEwMylZFFTv4pFm1lWeZPV3qI9aGDnxSu3Sd5yp1NnJDNkqVNZy6UR75PxeN7YMskQhAwJPMbWbWHRmqT3pkG/o3T2goxC6FHtnfg3QftL5aRHRBbOmc1WyuRKaT9TAgLTA4B4iaxd4Sxn1TpUor2cQ4xOU9r4826q3XQkggBNPO2sRi7+tZuOok2a1viP8LVExz6Uo3KtiK/YWkzg5rUr9OPYN+nv//2opWaZEDj9s3NadIkSuTuVBWTks2aRsX15PO9rzXrNVLeTlZdlGcpyi0VbOnrqptZelqnLz9GRk/91WGgz9EFFsu591IDgI84iEzeVhuh9CQDCuCLDKSSeUnFD9ZbqMlDbKoERBsiLg2pyl7BcICL2YRtcBC5fuU7PvPAOScCn07OsZavSEy/316kSuvwgcGjd17TwmSfotxlj6fZNfT/W5Ysm9sOKmLNKF/Ki7y/EnMHYEemylDF+uUhY8jiBMTNjLCUNJa/HlCcG/okxl4EDi1dd0PbegHKPWnuDe89dCQja8md5kuIQb2XewGLedmCRxy5541vyJQDwTZONckl365OjZlCyzErB0UMeyV2hPB2A4YCH0Dh+hwR2EuDJ8/46nZFzsPq7H5MnNFSnWujygcDlk8fpm24t6KvODeniMfmdJG3/ShZMSCKqCv+9eIu66J9UKOP75dk2meXPG0endWy99Ab8wVtt6bWxf9PRUxJjqKksUyQRFc8X8Qi6mi6F0pm4rAzvTOXt/nsyk7cS/PEm5hSUAYC4KxOuak6YT2GJkshXbSI9AbUxHKCNpx0UycW/Nnf7677zD0uSlGq9v5DkXLSDn26x4c6tW7RtzmRa8HQJ2v/tZ6a43blBKi16e088RSdO61lf4p5BMqu/HH/+H0uwJBkDl8kbP+ty6PwlWbTnlBZ1nRrIeklaVOlSIr0A8pjlx3EpDNoAQBxPV6g4PTVmpva7LwQBQjc4xKyLf0hoPKrBd/5pCxQNDlAO8eLUji20tEll2jiiD924bE7Pd6pkodT0qeTKRNb9doU+WqFvHgEbJLPHK/D2AEuwJXm7jgwHrNXl2CerL5CO2fvNa6SgZIlDSJddVuoJ6gBAQMqkwPL9RslHrYIgQCvOgCgz6+IvzlQYMIayV6opHyEWEAi/eIF+GNaDljWtSv/s+t3UGlvXSUGJE6r9dMpqf33eP0Wy1WTsHtYjJ9xp3gZrkoiuHjunrSegy9i/SfX5fbn4t6gpr0NgyxyW1M5ihzgr7wswY911BAEOOQGiMdPMi3+xtl2ocFNZ9TSairFLO4G9K5d6u/t3zJ9Gd0xe89XjIepYX737X9YR+HmXtmfS5a1xNRjsSZZgTxfZQXmkcRdvldOfh8JpxufqvTCd6ttuGMAnNq4IAIREuT4jKG+dhvJRqyAI0IrTEmVmXvwfqdeMyva0bCEvS3jZtZILRw7Qig7P0Xc9W9OVf2Tem/mWVn08CRXIEV+polu3iQZO0zaxXWb7P8sG6Vu0gpXZPMkKguKzbJVNlfc7qL6+t1i+hFS2SCJlW6xW4JoAwPtkwMjplLNqXe2MEQRoR2qaQjMv/rmr16Oqw6eQnGumOWATxTevXaXrF85ZKnKRl4u+yJYPRtGiZ0vRkQ3y8jproMQP81Dbuilo/7EbJM/sb/nzGhmR8QvP0s7913UZ/QorCqYJf+yOT2kv52rKorxOgKwNoLqmA9tBnTRNDBVdVolrAgABKmsS1Bg3m2Q9dvmuUxAE6KRpji4zL/7yHorqY2b5/Ya/KYWSkoqokLp966bhuqeXSEcflclqqXxcOS/Nq/moV36eMJQkCFHx39+yMlbcPCtlgQAAEABJREFUcshxytNwL+Vvso9Ktj1gSHpN1NZTP519+IjFrUlematlfeeRs08rzwVoVC05pU7urMd9XRUAyP+S0PgJqNbEBZSphDxaKnv0CYIAfSx1azLz4p+5ZHmqNWG+llfO6vY7Nn0e8sR2GMfsTUC6/HvY20RLrBvCtfzKopSO/XOTlq2V6QVG1NwtkyiBh+YMykytaqeg7BmsXwCPDPxzXQAgjGRtgLpTP6WMJcrIV62CIEArTi3KzLz4SyBZ54NlFC9hYi22QgkI+EigE+eTWfG8cXWS1XxkVTzZKoGYtPRfpfJSuE65pPTxm5np0PK8tH9pXpr5RmaSp0ZyZLRnQODKAEAaShZpeXrqcgQBAiOIxeyLf91pyykscRJnEvSgB8CZDUdz2O5vWJDuEtjBmwksSmnD1iu0dY/MqfRPTUy5c2UOozZ1U9CsgZnp4Kd56cAy+wUErg0ApNEQBAiF4BVc/IO3bV3s2VX2HS+WYAhRkgwFKD8KouORwCh23f+aM9PDAYEEB9JDIMfuZ7Twg6sDAOHsDQKmf0aZNb0mVHRGiAwH1MQLhCJwWLqVF/vUazlG+4t9xAkZOpIhJMfe+YsTLB4PegAYg9PSJDb4GAvSgwQu8lflCYFL1lwkeUyTdfmYjGeTi75c/CUIkN6B41/ko8XDs1CH51JSoVwJjCv2o6TrAwBhJXMC6kz6xJThALxASAhbK3LnX6vJCFq7UctaIQ8YL2P+T0/7jCRwfOAAvoCA+QTkIqd/WVPz7baqhqlckbwZjzfG0t9nbtKmbVeMFVYslSltPJInCab2zUQ75+f2DhsoqoyzOAKAe4jkBx1zAu7BcPBGLv7yxkbpfdHthlz8HT3mHxUIegCiErH7d3nsL5iX+lXlLwP441WVfLJa4izftJiZy4qJgwgAIrUggoBIMBz4ERd/BzYaTPaVwB3OOI0FKXYCH/FhmSfBG2NpxUZ7BADGrPevFAKAKLwQBEQB4pCvuPgbbCj0AhgEZ3mx1VyjvOqXN0ixEJC3Bi6K5Xichw4cv0GHT/ryVGGcqmyfAQFANE2EICAaKDbehYu/jRsHpukigLt/30nO8z1r9DnX/i8w8wCit8a8vQgAYmDrDQLwdEAMdOyzO2K2vxlj/sEy298+rQVLDBK4wOW+YEHyjcAaznaKxXBa50MAYFi5jQoiAIilMfB0QCxwbHBI7vwx21+tITwePAqoRtCS0ku4FqVxbS7vpnSLnVUKmH7c6Q7cCAD4TIktoScgNjqBO4Y7/8CxR82WE5hreY3Or1B6AQx7IW97vBYu8y5jUhEc+xEA+NCO3p6AKUtMWSxI1gmo1WQkyd2sD6YgCxOQi//TLUab8py/dPvL46AS+HFVwZ/QA2D3Npbn2tfb3Ugb2ieTJg2bdfPWHdp14Lrh8k4piADAx5byBgGTPjHlLYISBMiz65cuy2OsPhrk0mzCCN3++hrfo/BGwJCw+JQgecrASIpUlDxbroBJ2gJFKV3hx5QlVZ4C8kKfLdyiMcl7fEy6tHmD5AeBE5z3EIvh9MfBmAMAw0ptVhABgB8NIneFdacvN6UnQCaxJcvVljzpm/klfpgfbVZ/64uaP1qlfuyMqi+u78JIWPlRhU9Z5c4/EMv7dt51iVTEJ+diydRx+znD9XfcepZe/PFoYGTzEWrxzfaASaNlm6jhJz8oS9MvtsiLfUpyE8Uko/kYkjECSo9NHjwR/I8CIgDw88Ty9gSYNBzgpynIromAXPxd1e2viRvUqBPw0J2D6lqgIQYCSgHAob9jCgBiqM2BuxEAGGg0bxBg0nCAAXNQRIGALO+Ltf0VAKKoEoHbdOewkgIUjo2AUgBw5OTN2HQHxTEEAAab0TscMPVTU+YEGDQJxfwkIBf/oFrb30//kT3wBO54QpXGqQPvga0t+EvFujPno596oaLTbmURACi0iDcIMGlOgIJZKOoDAen2D8SYvw+mIYuLCNy5GX7KRe5a7eo/KhX+exEBgAo/V5TFcIDzmlnu/NHt77x2C0qLQ8PcseZsYBrvskq15y5FFwCoaLRfWfQAaGgT9ARogGiRCtz5WwQa1fhGIMF1BAC+kTKSS4ntjZt3jNTpqDIIADQ1l7cnAE8HaKJpjhq5+GO2vzlsodUggX9TKV2kDNbqlmJKPQA3o+kACDZwCAA0tqg3CMDTARqJ6lOFbn99LKEJBBxCIFzFzpvoAVDB586yGA6wX7vLnT8m/NmvXWARE0j1b2L+i2QOgZQqahMm8EQpHnxf0QNgQpt6ewIwHGACWf9VysUf3f7+c0MJiwhcT4AAwDzUqVRUJ0kY/JfH4PdQ5QxQKOsNAibLWzwVlKCoMgHM9ldGCAVmErh1AwGAeXzVAoBED14ezTMzcJqD38PAsaWwxEkCWDuqFgJoA6EAsSsBT7z46e1qWxDYpRQApE0RGgQIYncBAUDsfHAUBEAABEwj4LlzK4dpyqE4rwqCzOniRSoenB8RAARnu8IrEAABBxDwkAcBgHntVERFdYbUCABU+KEsCIAACIBArATu5Iz1MA6qECimUjhXprD7xYP1A3oAbN6yiz9fRW4WmzcPzGMCV8+cor1fLaGNI/rQig7P0YI6xemjMllparHUNKVQUkisDJJ1YoR3YpH3+BiS/wRCuUhBFsMpf44Ehss6pSACAKe0FOwEARsRuH7+X9oxbyotbVKFZlXMTd/1akPb5kymIxu+p3MH99L1C+fo9g2ldVhs5G1ATWnCtcvFjDdIfhAozHmVnrDInz0+q5AUvIIAIHjbFp6BgHYCl0+doE2j+tGcagXoh+E96dT2X7XXAYUPEMjA355iQfKPQF3/sj+YO0miEMqTNf6DO4PwGwKAIGxUuAQCugncvnXTe4e/oO5jtPXj9+nGVaVl1nWbF+z6mgW7gyb494yKzhL5E1Lovaujih67l3WBi3ZvAtgHAvYmcP7QPlrauLJ3jP/G5Uv2NjY4rWvAbiViQfKNQDrOVorFcCpZIKHhsk4qiADASa0FW0HAYgIHVq+gJY0q0Ok/tlpcM6qLRCAZf36OBck3Ak9zNqV5ExWKRUwfYE1BnBAABHHjwjUQUCGwe/k8+rbrCxR+6aKKGpTVQ6CdHjWu0CJPVhh2VLr+qz6OAMAwQBQEARBwNoE/lsyi1QM6kYz9O9uToLG+KnuSjwUpdgJP8GGl7v8nCiWiVMnudiCwrqBO6AEI6uaFcyDgPwHp9l83pCvRnTv+F0YJswh4WPErLEixE1BmVLdc0thrCKKjCACCqDHhCgioEpAJf6v7tac7t26pqkJ5/QTas8oMLEjRExA2sm5C9Ed93NuwWvJ7OQO7OfT3DdMNQABgOmJUAALOIHD75g36tkcrjPnbt7lkYLqXfc0LuGWD2QKl6fuFcyegAjkC8/y/XPA//uo8tR12nHI/v5dy1t/L7pibEACYyxfaQcAxBLbNnoTZ/vZvrZfZRLxAiCFESbLyn/JEyRdqpriv1uwPkS/4uRrcveC3GXqcZn15ng4cN//uX/xDACAUICDgcgKywt+vk0a4nIIj3JdegHcdYam1Ro7h6pRe3xcWz0Nt6poXAMR2wT94wpoLPjN6ICEAeAAHvoCAOwlsnfkeVvdzTtM/z6ZWZ0G6S0Ce+69196PxvzL5L2OaiBjCuJ6Ikhev3Ka5X58nuauPeocfqAt+hG0RWwQAESSwBQGXEpAX++xaPNOl3jvW7RlseUoWt6f0DGA6i3Lq0ji1sg55cGbt/65Q67eOU6an91DLIcdJxvXtcsGP6iACgKhE8B0EXEZgz4rFuPt3XptnZ5Mnsbg5yaORErlmVIXweIGEFHnxHyP6roXfoYJN91HVVw7R7JXn6fLV20bUWFrG9gHAlEJJSUUspRlNZSFhajNKb968GY1Wd+y6cUNtXEyVvTsoE+3+bL42V1PnK0Tl+4+mJp//Qu22nKTOuy5pl45bz1LpboMoXkLrl8dfNCwL3dlcUEnmDs6si3dzVtSOxa2pCzteh0U59W6RRlnH4lUXaPfhcGU9ViqwfQBgJQwz6gpLJHN2jGu+evWK8cIOL3lN0fewxEkcTsB886+eOUWndv5PuSIJtiq+MZYaL9tMRVu+TKnzFqSwRObwl7pKdOhNTT77mbJXsHYofMqyf5VZNaueguRxM2VFdxVIL0CFux9d9bcSezuKRTk9micBNXrg2X9jKqd+qn5uGKvZeCkEAMbZ+VRS9Ufw2tWrPtUTjJmuKvquyj4YmUb16dhP65VX/JMLct2py6hI8w7kCbVuCdXk2XJR3WmfUo2xsylJ+kxRXTPl+7rfrtAfB68r6Q7hX9232ssL65TURBSWLsal/CU3i1tSMXb0c5YELMppWMd0JG2iomjb3uu0abvzfqv5VFRxG2XjIhAvidpd0MUL5+OqImiPq/qOHoC4T42TW3+OO1McOcr3HUlZy1SJI5d5h/PUakBNV/yPHm3RyfQARCZ5TVl2TtmZ+pWTUalC2oYw0rNBq1iysQR7kkBnJTup5Xk9eetfvYryskXWeC8Z2XzgwLt/8RMBgFAwURIkVTtPTxw/aqJ19lZ9/Jia7/GTY5J0XC187sCeuLLEelzG/As3eSnWPFYcjJ80GVUYMIaeX7CG0hV+zNQqZ688pzzBy+MhmtQrI8mb5zQZm5P1SBCQmbfBmiTA+Yady8SinIT9xJ6yerCaqojH/dS0BKY0AgCTuSfPJv8vjVdy7Ohh44UdXvL4MTXfk2dVY+9wfD6Zf+6Q2nKjBRu2ISu7/eNyKl2REvT8wrVU4fV3SIKCuPIbOX7+0m2a/+0FI0UfKFOyYELqVD/VA/sUv+Tj8htZ8rMEWyrKDm1mycuiJXVukIqK50sYRZf/X+d/e54kCPC/ZOBLIAAwuQ2SZ5MeK+OVHDl8yHhhh5c8cvigkgcpsquxV6rcIYXDL6oNMWUrV812nkpA8ugLnb3DAnlq1jfFPh2TAcWwYZ3Skc7FZ1inRL0SBJTjz8GSnmJHfmDJwqIlZcsQRsM6ysiJuroPNAwJqVvxgIYD/G0WS2uWWBMCgFjxqB9Mni2XkpI/dm6jOzLwqKTFeYXF5z92bFMyXJW9UuUOKRx++ZKSpUkzZlUqb2ZhmRhYY9wckgmKunuDfvvrGv24Q33SV8qkoTS9fyby8JCARhZpWNcalldZnJ46sQNfsiRn0ZKE9YevZ6IUSR++/PlbgZwDv++55m8x3fn3s8KZLHLBl/dEyJ1PW/4+myXWpE4gVvU4mCJHHiUIF86fI9U7YSUDAlT44IF9dPGiWjcregDibrzbN9SeWw5LkjTuSgKcI3vFGt51CUp06EUh8cK0WbNZQwAgxjxdPim9zN3R8lmjyNMBE1nfAhYnToaR23OZ6T+F7RdfeKMnybBL9VJqk7MjLAnQzP99XP9HLK1YsrPIReZF3soF/zBvfU4IAHxGZSxj2oJFKSQ0nrHC90pt+23LvU/u2Wz7XYeq8ucAABAASURBVM1n+aEX9u4hBk9jIyCLBpXuNpgyligTWzafj+XIGEYdn9N3XX3ntQxUJLeWp9qi+tCUd+xkeZbFKekZNnQ7i2x5oy8V4zH/d7vENPHP/3rkHMjOwwn+l/SrRNQLvsyDkJm3c1jLERbDCQGAYXS+FZRn0dNwEOBb7uhzbVgvk3ujPxasezesU/M5XaHiFC+h2iJMwcrWrX7t+3Y5Hf/5By3uj+2agRIn1PfzmSiBhxYPz6KlWzoaB+XJgOW8fwmL3C3yxpZJJi8uY8vkzl96APijviRd/kvezkLCWpfWJIlCSM4FXfru6ZGZuR/y55Ys2Vi0XfBZ1wNJ3xn8gFp8iUwgY/HSkb/6/Xn/3r9cNQxw6OB+OsRDAH6DilRA151eJJX46GACN65epk0j+2nxoGbpJNSgivqz41GNKZgzAc0fkkXno4FRq5C3CO7ineNZtF9gWafRJLfkk7nwDhZTZm2G8JXu44GZKW/WmEcTuG5D6fmqyagGnxOGCj9c6G/eVYJFlniey1u1Z6FZQWyJscR2GMd0EMhUoqyymjXfr1TW4RQFa75T9zXjY+rMncILdsZNYMsHo+nS3+q/pQnCPDSxp/K7Z2I0uE65pDTqFbkexphF9YBcAbuyEnm8aBpvC7AEKhXliuXCL3e8nfmz2lgpK4gpSbf/s5X0B20R9U3skZHk3Ij4rrCVk2uQQnm/iiIA8AuXscxZy1UjWS7VWOm7pb7/+kvlSXF3Ndn7r0x6XPXdV0pGhsZPQFnLVlXSgcLBQ+Dc/r9o6yyZD6fuU8/maShfNrmGquuKSUPP5qnp1YZa1weIrqqEvLM9i/QIrOWtTCLTNtOe9cWU5CosXdvyqOJWziQXflNnknZpnJq6NUnNVcWW1I49kj0+9WimrQ55yVFhNYt8K40AwDdOSrkSJE9JqkulXrt2lVZ+sUzJDicU/vLzpXT9mtpjNRJwmbUIjBMYwsYHCfzwdi9SfdpBNMrEvwFt5Ak7+WauTOA7yrZP65tkGIu1Hj5WmUXGnKX7WbrfuvH3gixyjDfKqQhr6M0iE3tO81Zmq1uyTkHrOiloXFdTe1TYnbtpQJu0pGlCoDyqoidivWtajH8RAMSIRu+B3DXUJ+Gu/OJTOn/+nF7DbKTt33/P0NdfylwlNaNyV1dnrWYBStuFwL5vPqWjm1ZrMWdctwxaJ/7FZpQ8qy7rAzR+Mnls2XQfS8QKa7GMY5GeAXm9ncB7h7/L8/h1eCt3ppl5K10UobyVRxfkzUYyufBx/l6DRdYfkMf31vPnMywyo380b2XVKHO7T7iSiNTkqeT04YDMFOLDVS6ijMpW84RA6cJspmKPL2UtQuOLKdHn6bzrEqlI9Fqt35vryWdIHk1Tqfny5Us0d+ZUFRW2Ljvno6l09coVJRuFca5qdZV0+Fv46plTtPerJbRxRB9a0eE5WlCnOH1UJitNLZbaK/JZ9smxjSP70t6VS+nq2X/8rQb5/STgnfg3qr+fpaLPXqtMUpIX+ER/1Jy9slb9vCGZSe5izakhTq3yIhO5EPXinHJB/5K3MlHvGG/Pstxkke66U7yVcfxfeStr9cvdqwQMFfl7ahbLU6vaKWju4MxmTqiM1ifNEwLHcCUyZMIbc5LtAwBz3LZea8KUqSnXk08rV7x+zXckqwMqK7KZgp3bf6eN6+VmQ82w3NXrUYIUcnOipieu0tfP/0s75k2lpU2q0KyKuem7Xm1o25zJdGTD93Tu4F66fuGct9tZup7ls+yTY9tmT6Lverb2llnWtCrtmD+NRFdc9eG4/wS2TBmlbeLfhB7WdCNH9TJeqIdmvpGZerWwZughav1O/N6Vx/tnDcxMws43+/Xm0jghUHpaBum17kFtIQ9+xTczCcj65Kr6ZYncSeNHkfQGqOqyS/lLFy/S5PdGa1nyWAfj2LhcPnWCNo3qR3OqFaAfhvekU9vlpie2EjEcu3OHTm77hX4Y1oPmPFmANo3uT1f+kSHYGPJjt18EvBP/Pn7frzIxZZaLr9kT/2KqW/bLcMA7r6anMa9lsKw7W+p1mkiPiTAaz0M1wixQ9pswIbCQWb6EmKUYeh8mkOnxclpeVXrq5N/0/riRWi6YD1tp7R4JaKZMfIf+OXVSuWJZ/CfjY3pWeotqzO1bN713+AvqPkZb+cIi3ctR8xj9fuPKZZJZ6vNqFqVfJr3t7Tkwqgvl7hKQoRbpfbn7zfhfeWlM/1b2uPuWpwO+n5CD0qcy7Wk546ACXDJpohBaOiIrCSN/TTEj/xtt01LOTDKXT1m7KPmAtXhYtCcEANqRxq6wSPMOsWfw8eiWnzfT58sW+Zjbvtk+/WQ+/fKjPBGkbmPR1jL3SF1PVA3nD+2jpY0re8f4b1xWe3lOVN2Rv9+8doV+5QBgWfMn6cIReaFX5KP47CuBfd98Soc3fOdr9ljzvdc9A8nkrlgzWXiw6uOJafP0nCRL2lpYra2rKpo3Af0yMxeZ+Zy/vwBklUhZe8DfcjHkl7kUTWI4prQbAYASPv8LP1KvGaXMmdf/gtGUmD97Bq1b/W00R5yxa+2qb2jRPHmJlbq9qXLnp3x1GqkriqLhwOoVtKRRBTr9x9YoR8z7+s/O3+iThuXp4Bq19RDMs9C+mqU3ZZODJ/75QjZ3ljBvECBj3YHs6vbFVrPzyIt9fvowFxXIEd9gVeYVa1AlGcmqkZpqMGVCYIgm46DGRwLyYqBSXfXM65Du8w8mvku//rzJx9rtk+2XnzbS1Pff1TaMUbrbIPKEhmp18I8ls+ibri0o/NJFrXp9URZ+8QJ906U5/blsti/ZkecegS0fjHL8xL97rsS6kfXsx/NY96qJOUjWJ4g1cxAezJo+Hn01NhtN6ZOREsY3pXdcCzVZz0HTCoFZ2KA3WbQmBABacfqmLE+N5yh9EXlk1rf8seW6xWPT744Y4qieALnzHztyCN26dSs213w+lqFYKcr15DM+5/clo1z81w56je5ostGXOqPmkXkHawa+giAgKpgYvgfTxL8YXHxotwwJbJubm2S1u3ih9r0QPmS4wR0hfMXq+Fwq2jEvD9Uum9Sglv+Kmf1JJgT2bK5tDklXtlfrhEDGySqRrCXg8VC5viOIeEsa/t3iIEBm0X+2dKG2O2oNZj2kQnosli2eR1MmvKPt4u/hX4Ryvd8mXSyJ/0m3/7oh/H/tzh3+FuDENqwb1IUOrZUF2gJsi82rl6cydEz8kzvq11tr+9E2nVryJCEkcxV+n52LqpVMQsH6r3zRRPQzd/d/0DejWW9NNAWdrB5p1xUCEQCY0uRxK830eDkq3ERe6Rx3Xl9yyMV13sfTacyIQXQ5AF3Wcdkoj/q9M/xNWjj3I61BSuGm7ShjCX0z/88f2ker+7UP6J1/VJbSE/B935cwMTAqmEjfZeLf0c1rIu0x/rE/X/xlEpdxDYEpWTh3Alo1MTt9NjorPfZIwsAYYUKthXIl8L4q+YcPctLjBXT6ZYKx0aiUc+l1fUtIy2qKTaOpxtAuBACGsOkpVLbnMEqaKZseZfe0yIz6Pt060a4d1k1au1d1jBtZ5Kdv947a5yoky5ydyvQYGmO9/h64ffMGfdujFQVizD8uW2VOwLc9W5MEA3Hlddtx78S/kf20uf3Wh6dpz5FwbfqsVlSvYjLaMisXLR/l7EBAApo5gzKTDHE0qpZcZyefpU2y92g4Df1IXoGgrVptEwJDtJkERX4TCEuSlCoPmUC6z+x/Tv1NQwb0pIljR9C5f89SoP7J2v4T3n3ba8s/Gp7zf8APHj6p8tb7FJZYX5enrNJn5Wz/B/zx4cs/O/5H2+d+4ENOd2XxTvw7KavT6vH7+OmbVOXlQ44OAvi/h/exuP99nIvWTMpB8k6BsHgePYBM1MIjet6x/W/GZ+dzPTe9UCuFacv5mujGfdVy8Zdz6dg/N+/v0/BB24RABAAaWkNFRfYK1al4Wx5vVlESTVkZEvhh7ffUrXMb76N2Fy+cjyaXObsunD9HC+Z8SN06taEN6+QFYPrreeyl7iRv/dOlWVb4+3XSCF3qTNPzy/vD6Mpp9UWTTDMwAIrN6BUJhiAgoimqlEhMi4ZloUOf5qXhndKRPDcfccwu27xZ49PQDuno4LK83tn9NUon0X1fZLmrJl38I/wIjfigsg1RKYyyegiU7j6YspSWN3Lq0RdZy5Url2nporn0SrsW9PGMyXT4kHkLzBw6uJ9mTZ9Er7RvQZ9+Mp+uXlV7sU9kPyJ/llcrl9b0KGWE3q0z3yOdq/tF6NW9lYWIts6Sd63o1uxcfeV6DaeiLV/W7kAwBQECJ1PaePR667S0dU5u+mNhHnqrfToqWTBhQO6wpYeieL6ENOiltPTb7Fy055M89EbbtCQrL4qt5ou5NZh88ZcfgJ46PEAAoIOioo6Q0HhU/d1ZlDRjVkVNMRe/du0qffn5Uur1Wjvq062jdxXBg/v3Kk3Ik14G0fHZskXUu2sH6t2lPX31xTK6fk1eEBazLSpHhNFTY2aRR+Mz//Iynl2L9SxIpOKbr2V3LpzufdmQr/mDPp/HQ+X7jUIQ4EdDy8I5A19MS798lItOf/OId76ALCxUqlAikklrfqjyKas8Cy/BxsvPp/L2Rpz86hHvhX9wu3QkgYBPShySyYKLv3QZ39GBAwGADooadCRKnY5qT15M8ZMl16AtdhVy0Z47a5o3EGjX8nnvkwOyIp901+/bu5tO/n2CZNb+zZs3SUQ+yz459sPaVd4hBXnaoN0LDbw65rGuQwf2xV6phqMJkqXwMkqUOq0Gbf+p2LNisSPu/iMslklv8vrhiO/YMgEEAQzBWEqZNNQ7X0AWFvrpw5x0YVV+2r0oj3fmvQwZvMIXbZlYKDPwZRXCDKnjUapkofdfTJQiaYj3uzzqJgFE3fJJ6aVnUtLbndN7dcjjiRdX5/cGG5N6ZfTOR0iXUksPtjGHicisgk66+AuDEPljZ5lSKCmpiJ19i2pb2gJFqc6UpRQvYeKoh0z7LnMDft68wTtMIBP2+vd4mV7r8AK92OI5at6gplfks+yTYxPHvu3NK2UuXrxgml1RFQsTYSOMoh5T/b77s/mqKu6XT52vEJXvP5qafP4Ltdty0ivyWfbJsfsZFT/otFnRFPsURxCgpS1C+aogC9jIzHsZMnifL9ryaOGvM3PRviV56e8v89HZbx+hWxsL0p3NBencd/m93w8tz0sSQKwYk41mvJ6J5CVKokPeW+CECYiq8Jx28Rd/uallA7ELgUwlylLN9+ZSSLwwu5gUcDtCwuJTzQnztD7vH+HU1TOn6NTO/0V8NbwVGysOHEeNP/3R2xWdOm9BCkuUxCvyWcaoGy/bTBUHvEuS13BF9wrKq4Svnj197xs29wkgCLiPAh9iIqB/vxMv/kIBAYBQsJlkr1iDg4B53BOQyGaWWW+O3PnXem8eydMSZtR+7Kf1RHfUhtPkgv70tE+pSLP2JCtSgLpVAAAQAElEQVQTxmSnzFso0qIj1Z26TD0IYJuP/8y2x1SZm/d7MCfAzc1vte9OvfgLJwQAQsGGkrNqHXpmxheUIEUqG1pnjUnie72PvqAcVWqbVuHJrT8r65YJaP48xSFPMZTr87ZyvTpsVzbCrgoQBNi1ZQJul04DnHzxFw4IAISCTUWWuK0/9ztTnw6wqeskKyTWn/c9ZShe2lQTzx3Yo6RfxvULN37Rbx1FmrYnGRrwu2CkAv8q2h5JVXB+RBAQnO1qE6+cfvEXjAgAhIKNJVWeAtRwyQ9aF72xsbte07KVf5IafvIDpcqd3/vdzD/nDu1VUl+wYRuSrn1/lUiZAs+39rfYA/nPK9r+gLJg/eLBcECwNq0xv/SUCoaLv5AIkT8QexNIlDodPT1tOT3xyuskFw57W2vcOvGt1Gtv8Bj5p5QodVrjivwoGX7xvB+5H86arVy1h3f6uEelrFRx/cI52UDiIuBBEBAXIhz3nUCwXPzFYwQAQsEBIpPLSnIA8MyMzyl5tlwOsNg/E8WnZ2Z8QY937kfiq3+ljecOv3zJeGEuKQsT8cZQkpcZGSp4r5CsCnjvIzZxEfAgCIgLkRuOq/oYTBd/YYEAQCg4SGSyWZPPfqLiL3ajkNB4DrI8elPFB/FFfMpSulL0mUzce/uG2lvf5IVORs1TKSt13gq/LhuIrwSCKAi4fPU2jV1wln7ccdVX74Mu3y9/XKUJi8/SlWu3LfEt2C7+Ag0BgFBwmMijcWV7DaPnP1lvyrPxVuGQSY7ig/giPllVL+pxMYEgCAKWrrlIhZrtp54TTlLZ9gfpsVYHaOryf+niFWsuhIE8ey5x4DP9s3NUsu0BKvXiQeo67iQVbr6flq+/6INZxrME48VfaCAAEAoOFVkVr/7c7+mZD7+gdEVKOMaLNI8Uphrj5pDYLj44xnAYGhwETA4CKnY6RLsO6O+dkYtQnR5HqOHrR+nwyRv32+L3Pdeo06i/Kcsze6jjqBMk3+8fDJIPfx4Kp36TT1GO5/ZSh5EnaMuf1+57dvDEDarf9yg99dph+uOgfu57joSTCa/0jbB/Gn/QtrY/6/IrIQDwC5c9M2ctW5UaLlpHtSbMp4yPmfvYnAoBsU1slNXy8tSsr6IKZUFAjcC9IODRFzqr6Ymm9MmzN6l6l8MkF45oDvu96wp3cQ/44B8qwne6KzfHPGdFegCmLT/n7REoxz0Ds1eep2vhaotc+W2sxgJi+9yvz1OFjgepYNN9NGrOGTp74VaMNaz69bLX94HT/qGr1x/2O8aCsRyQoKvqK4fo2D83Y8ll+NBELtmJRY+xrMjfhADAX2J2zc8/aLmeqkf1562ixp9upkKNX6KwxEkCbq3YULhJO69NYpvYSGxrwA2DASDA52GF/qPJjCDg+Omb3rtG1SBg2dqLfPHbT29/fJqu3/D9OrF5x1Vq/dZxKvrCfrrtwJEBCXSy1ttDLYccp43bfJ/nIIyGzTzNQyT7SHVYQC7+Jt75y8U/YHf+Ef/5EQBEkAiibZr8j1Llwe9R63X7qPq7H1PeOg3JircMRiCUuqROqVtsqDRoPIlNEcexBQHbELBpEPDX4XCq1e0wPd//we5+f7lJALL2f5f9LRbw/Iu+v0Bnzsd8tx+XgRHDAnV7HiG5kBPFVeLB41Im2C/+4jECAKEQpCKzzPPWfp6qj5lFbTccpKenf0aPd+xDWUpXpvhJk2nzWuoRnSU69PbWIXVJnVK3HNNWERSBgBkEbBQERHT3y537Nz/puXDP+uq8GdRM1bn2f1e06P9q0yV6tMV+enP6Pz4PC5h88X+fHQv4nT/b4E0IALwYgv+PvLBGVtgr1fVNqjfzS3rxx2PU5DP1dfBFx0s/HffqLN1tEEkdUlfwE4WHQUXABkGAdPfL7H5/u/vjagd5auDCZeeMAxw4foMO/f3fJMe4/IvruMwlGPrR3WGBz+J4WsCCi38XtvcOiy2S7QOAzrsukYrYgrINjZDFdmQde1XTRIfoUtWD8iAQcAIBCgKkmz6iu1/nhS+Cp/QqfLrO3MfkIurSsV33m567/6i2yLDAc32PUkzDAm67+Asf2wcAYiQEBEAABCwhcC8IKNryZe3VycTAyI8Iykz1wTP+8U7U09XdH5PRa7boGU6ISb/O/frnLDxonQwLSE+LrCEg6wrIUQnCTBzzn8Z12OrOn+3xJgQAXgz4AwIgAAL3CHAQUL7fKFOeDoh4RFAW7pFH24Z8eNqSR/XWbDHnrvoeMa0bXeP/sRl14+Yd7yqCMj9AFhYy8VE/GfMP6KN+sXFAABAbHRwDARBwJwEOAuQRQbN6AmThHjO6+2NqLFk4SMbWYzpul/1io24usfkmwwKysNAxc57zt+2dfwQTBAARJLAFARAAgcgEOAiQngAzgoDI1Vj12eyudR1+OMFGH/2Ui79t7/wjfEAAEEECWxAAARCISiCIggCzJtdFRabyXb+NKtYYLuuIi794hwBAKEBAAARAICYCQRIEOGEegBXj/zE1s6b9jrn4i78IAIQCBARAAARiIxAEQYDMA5Ax79jcDOQxsU/3+L/F/jjq4i9sEAAIBReL6qI9Ny5fciy98Etqz0aHxk+g7Hsg+dvBf2WAVioIgiDAznfYq391zpMK0Zx2jrv4iw8IAISCiyV+kqRK3l/6+6hS+UAWvnTiiFL1OpY5DiR/O/iv1ACBKHwvCDDjBUJWuGPnSXbrftO9VoEVRL112PpRP6+FMfxBABADGLfsTpA8pZKrRzatViofyMKqtquyE99Vdaj4oFJWh+2iw5HCQYA8IujEIMDOk+zs3DsRy3kqF39bLvITi833DyEAuI/CnR9SZM+j5PgfS2bRnVvG39qlVLlCYbFZbFdQQSly5FUp7i0bKP528d8LwYl/HBoEyBwAEbshl7F/3XZZ4KOjL/7CBwGAUHCxpMyVT8n7s3t20c6FM5R0BKLwjgXT6N99fypVnUqRnVQeKP528V8YOFYCEAQkTpdRGZcdewE03f2fUIbjuwLHX/zFVQQAQsHFkqF4aWXvN47uT0d/XKusxyoFRzevoU2jX1euTgc7HTr85W8n/5UbIdAKLAoCQuKFUfEXu1HzlVspRfbcSl7bcR6ABpv2M5RHWEazhBPxX/NSUFz8BQ8CAKHgYslSuhIR/4iRwr/bN8Lpy44NaPu8D2w9HCDd3tvnTvHaevvmDQWPieQNiFlKMTtS+2clfzv6r0bPJqU9HjJzTkDWMlWo8fIfqWyvYRSWOAllVjzvNN1ta4WvoVdC7kDkkaS+bFgxlu9ZzEhBc/EXOAgAhIKLJVHqdJTh0ZLKBCQI2DC8Fy2uX4a2fvw+ydDAjSuBn9UrNogtW2dNpEXPlaYNb/cm1Yu/wMpQ7AlKmCqNfFQSs/nb3X8leHYq7NEfBCTNkIVqjJ1Nz3y0glLlzn/f28xPVLj/2cgHGWuXMXcjZc0oI7bIOwAUdUsAEKHiT/5QnaUxi87HlILq4s9syPYBwJRCSUlFxElI7AQeqdcs9gx+HD279w/aNKofLXq2FM0omUGp7VTaPaKs2CC2bOJhCtUx/8gYdDLTqSsqfyf4H5mroz9rCgKku1+eMGi6YgvlqdXgISSZn6j40D5/d+Ssv5c8Zf+whYgt/tofTf510ez7hPdJ5DSEt9dZVJI85+/Y2f4xOW77ACAmw7FfH4F8dRtRWKIk+hQGuSZ5/j9v7YbavHQaf93+awNpB0WKQYB09zdZ/hNVeP0dEs7RuZQ0YxZKni1XdIfcuk/G/w//5/wDn2R1ocG8R2VYQO78bf9iH/bR74QAwG9kwVcgQYpUVKjJi8HnmEkeFWnWgVSf349smtP46/Y/Moug+GwgCEiSPhNVGzHN292fMrfMZYudhI75J7HX4Kija3ywdjfnkWGBerw9xOJrCso7/wjnEQBEkHD5tnjbriQTjFyOIU734ydNRsXavBZnPn8zOIW/Wf77y8v2+SOCgBZy4xiztbIU9GPtelCzr36n/M82jzljlCOZS6kPA0RR6eSv6yMbH8fnL/h4YZaRLOEssaWgvfOPcBoBQAQJl2/l+eKSr6g/GhfsGJ94bSAlSp1Ou5tO4W+W/9qB2kGhBAHclS/j+dGZI0+ANFq6kcr0eMvv4DuzhnkA0dnk0H3Rjf/H5orMTu7PGYqwrGSJLgX1nX+EwwgAIkhgS0VbvkzpCj8GEjEQSP9oSSrSvEMMR9V3252/2f6rE7ShBgkC+o+mRyP1BCTNmJVqjJtD9WZ+RanzFjRkNOYB3Mcm4/+RuvTv7/flwx7OVIelEcsRlog0iT9I180d3gZ1QgAQ1M3rn3My+7jG2NkUP1ly/wq6IHeCZCmo+ruzKCQ0nmne2pm/Ff6bBjbQiiUI4J6AYq1fpcfa96SmX26hPDXrK1uFXgAvQn/v/r2FovxZwt8lEhvB2/EsMsYX9Bd/9tP+jwGKkRDrCMjs4idHzjD1QmedN3pqkov+U+98RMmz5tSjMBYtduRvpf+xoHH2IQ4CyvUdSWW6DyFdT9xkwTwAOSciP/9PssOgyLCAjIF25/KuuPiznwgABALkQQI5q9ahykMmkOoKgRQM//iHu8rQSZS9Uk3LvLEV/wD4bxloh1eEiYDeBtQVAHiVue0PhgDc1uI++lugQSuq9vZUkm5pH4sEXTZPaChVGTKR8j/XwnLf7MA/kP5bDtyBFcpcAukxcqDpukyW8f9Iz//rUusePQgA3NPWfnsqjyXVmjDflXMCZMy7zqTFVLBhG7+56SoQSP528F8Xx2DWk9ndTwPoGP8P5tMjTt8QAMSJyN0ZclSpTY2WbKR0RUq4BoTMdm+4dKOl3f4xwQ0Efzv5HxMX7L9LILPiewHuanHs3we6/x3rRQANRwAQQPhOqVq6GRssWE3l+48mWQjGKXb7a6dMzpJnsuvP/96SCX++2mcVf7v67ysnN+aTtQTc6Pc9n9EDcA+E0Q0CAKPkXFYuJDSed52A5iu3klNWrfO1iWTN9cde6k4tvttBsiqb+OprWavyiU2yToAZ/J3gv1WcnVaPdx6ABU+n2JDLAbYp0vP//A3JbwIIAPxG5u4CidKkp7K9h1PL1bup4sBxlKFYKXLk0wIeD2V8rDRVGjSeWq76k8r0HGrKCn+k+Z82/g71XzPOoFCX2Z3zAND9r+HsRQCgAaIbVcjLcIo0a08yNNDmhwMkCwjJQifZK9aglLnyUcKUqUnWOQ80G7FBbBGbxDZZx19WYWu74SDVn7eKCjdpp/XFPlb56yv/YPXfKs5OqMeljwM+0P3vhHayo422DwA677pEKmJH6MFmU6LUaSlPrQYkC53UnbqMmn35G7XddJg6bj2r1HYq7R5RVmwQW8Qmsa1cnxHeVdgSpkoTNM0QG383+B80DWnQEXlaJOJ8j7o1qDJyMQ9/saN8zHYhKRKwfQCg6B+KgwAIgAAIBDUBOGeUAAIAo+RQDgRAAARAAAQcTAABz+07xQAAEABJREFUgIMbD6aDAAiAgNsJwH/jBBAAGGeHkiAAAiAAAiDgWAIIABzbdDAcBEAABNxOAP6rEEAAoEIPZUEABEAABEDAoQQQADi04WA2CIAACLidAPxXI4AAQI0fSoMACIAACICAIwkgAHBks8FoEAABEHA7AfivSgABgCpBlAcBEAABEAABBxJAAODARoPJIAACIOB2AvBfnQACAHWG0AACIAACIAACjiOAAMBxTQaDQQAEQMDtBOC/DgIIAHRQhA4QAAEQAAEQcBgBBAAOazCYCwIgAAJuJwD/9RAwPQCYUigpQcAA5wDOAZwD1p8Dei4T0BKsBEwPAIIVHPwCARAAARAIBAHUqYsAAgBdJKEHBEAABEAABBxEAAGAgxoLpoIACICA2wnAf30EEADoYwlNIAACIAACIOAYAggAHNNUMBQEQAAE3E4A/uskgABAJ03oAgEQAAEQAAGHEEAA4JCGgpkgAAIg4HYC8F8vAQQAenlCGwiAAAiAAAg4ggACAEc0E4wEARAAAbcTgP+6CSAA0E0U+kAABEAABEDAAQQQADigkWAiCIAACLidAPzXTwABgH6m0AgCIAACIAACtieAAMD2TQQDQQAEQMDtBOC/GQQQAJhBFTpBAARAAARAwOYEEADYvIFgHgiAAAi4nQD8N4eA6QHAr1t3EyRwDFRPmztvdaFACux3Nn/83w/c/31hr/r/B+WDm4DpAUBw44N3IAACIAAC5hKAdrMIIAAwiyz0ggAIgAAIgICNCSAAsHHjwDQQAAEQcDsB+G8eAQQA5rGFZhAAARAAARCwLQEEALZtGhgGAiAAAm4nAP/NJIAAwEy60A0CIAACIAACNiWAAMCmDQOzQAAEQMDtBOC/uQQQAJjLN+Daw8LClGy4eD1cqTwKO5fABcW2jx8/vnOdh+Ug4AICCACCvJETJ0mi5OGRC5eUyqOwcwkcPn9RyfjEidXOPaXKUTgICMAFswkgADCbcID1J0+eQsmC7/YeViqPws4loNr2yZMnd67zsBwEXEAAAUCQN3K2bNmVPJyxZSfdun1HSQcKO4+AtLm0vYrl2XLkVCmOsi4nAPfNJ4AAwHzGAa0hR85cSvXvOHWGpvyyTUkHCjuPwKSft9Guf84qGa567ilVjsIgAAJxEkAAECciZ2d4tNhjyg70/HoDrdp/RFkPFDiDwPf7jlCvb35QNrZoUfVzT9kIKHAoAZhtBQEEAFZQDmAdJZ8oTR6PR8mC8Fu3qM6cz2nij1sxHKBE0t6Fpdt/Ardxnbmf0Y1bt5WMDQkJoZKlSivpQGEQAAFzCSAAMJdvwLWnTp2GChcpqmxHOAcBXb5aR8Umz6dxm34jGRq4FH5DWS8UBJaAtKG05Vhu06KT5lFXbuMbihd/8ahI0WKUMmUq+QgBAb8JoIA1BBAAWMM5oLXUefpZbfXvPHWGenz9Az36/jxKNmwKed6cYKqoGm62fXHpt7v90obSlj25TVXH/CP7WlfjORdZLz6DAAjoI4AAQB9L22qqVftpSpQokW3tg2HBRUDWnqhes25wOQVvLCSAqqwigADAKtIBrCd5ihTUoGHTAFqAqt1EoFGT5oQ1ANzU4vDVqQQQADi15fy0u2Wblyhx4sR+lkJ2EPCPQJIkSalFy7b+FUJuEIhEAB+tI4AAwDrWAa0pbdp01L7TqwG1AZUHP4FOr3QlmXga/J7CQxBwPgEEAM5vQ589aNaiNRUsVNjn/MgIAv4QkKdNGjdt4U8R5AWBKATw1UoCCACspB3guuLFi0cjRo+npEmTBdgSVB9sBJIlS87n1jgKDQ0NNtfgDwgELQEEAEHbtNE7ljVbdnrr7dH4oY4eD/YaICAX/WEjxlDmLFkNlEYREPiPAD5ZS8CXACBcxaQbN7BYjAo/M8pWqlyNBrw5VHmFQDNsg05nEfB4PDRw8HAqX7Gyswx3gbXh4Uo/3ULouvyBBC8BXwKASyruX71yRaU4yppEoN5zz9PgoSNJhgVMqgJqg5xASEioN5B8ul79IPfUme5duXJZ1fCLqgr8K4/cVhPwJQC4oGLU+fPnVIqjrIkE6j7zHL0z7n3MCTCRcbCqljH/cROm0HMNGgWri47368IFpZ9u8R8BgFAIYvElAFDqAThy5HAQ43O+axUrVaV5iz6lQoWLON8ZeGAJAZntL+cMuv0twW24kiOHDhoue6+gpQHAvTqxsZCALwHA3yr2HDp4QKU4ylpAIEvWbDRzzmLq0as/yTKuFlSJKhxIQBb56dlnAH00eyEm/Dmg/TT89ir99jsAketN9CUA2K1CafvW31SKo6xFBEJDQ6l5yza0/ItvqWXrlwirBloE3gHVSFDYqm07+nTFt9SsRSs8QeKANhMTt21T/u1V+u0XG3wX5AwEAdMDgF9/+Ynu3LkTCN9QpwECqdOkpa49+tCKb9ZR39cH0aNFi+NpAQMcnV7E4/FQ0eKPUf83BtOKr9dSl269scKfgxr19u3b9OvPP6lajABAlaDNy5seAJw9e4Z27thmcwwwLyoBeZmLvNRl5pxF9O2aTTTinfHeHoJyFSpRjpy5KEXKlBQWFha1GL47jIC0obSltKm0razjP/Kd9+i7tZvpo48X0vONmuHFPg5rUzF3x7atdO7cv/JRRSwLAFSMRFnjBHwJAP7H6pVu4b9a8RmrQHIqgVSpUlP1GrW9cwQmTJpOSz/7mlat+4k2/7qDft26G+JgBtKG0pbSptK23Xv1o6dq1KKUKVM59XSF3UzgyxXL+a9Sus2llccQWAeSjQn4EgCcZvuVbuG/XrmCrl69ymqQQAAEQAAEzCRw5fJl+u6br1Sr2MoKzrBYkFBFoAj4EgCIbavlj1G5cP48LVuy0GhxlAMBEAABEPCRwCeL5pOGNQBW+VgdsjmYgCUBgPCZM+tDuoJVAQUFBARAAARMIXD58iWaN2emDt1KN33+GIC8gSPgawDwPZuotKTf6dP/0PQP3mc1SCAAAiAAAmYQ+GDSeyQTrxV1y+xBBACKEJ1Q3NcA4Bo7s4RFKS2Y9zH9sWunkg4UBgEQAAEQeJiAPG21eOG8hw/4v2cxF7HoRUBcE1LACPgaAIiBc+SPity8eZP69+lGly5hhUkVjigLAiAAApEJXLx4gX9bu9OtW7ci7zb6Wfm33mjFKGctAX8CgB/YtL0sSunokcP05ut9dJ2oSragMAiAAAg4nYBc9N/o34uOHzuqw5W/WMkmFksSKgksAX8CAFkL4B0d5q5ft5qGvzUQKwTqgAkdIAACriUgq6wOHTyANv6wTheD0axIfut5gxTsBEL8dFCml2p5vd/ny5fS4IH9SIYF/LQB2UEABEDA9QRu377lvZFa8fmnulgcYUUWdv9zbUgBJeBvAHCDrR3LoiV9+cVy6t39VcwJ0EITSkAABNxCQMb8u3fpTMuXfaLT5VGsLJwFySUE/A0ABMs0/rOPRUv6Yf0aatGkPu3auUOLPigBARAAgWAmILP95TdTY7e/4JKx/xnywSpBPYEnYCQAkDV9X9Fp+rGjR6hty8Y0ZtRwkoUsdOqGLhAAARAIBgKynPrE98bQi62a6prwFxlLN/6CR/8YgpuSkQBA+HzDf7QNPLEu71MBC+fPpvrP1KQ5H3+IVQMFCgQEQMD1BGRt/9kzZ9CzdZ6kjz+a7v2t1AxFnvtfqVlnHOpw2A4EjAYAYntX/nOWRWs6e+Y0vTd2ND1dszKNensIbd/2O54W0EoYykAABOxOQGb3b/v9NxoxbBA9XasKTRj/jo4V/qJzW1721j26A9gX/ARUAgCZMdqWEd1h0Z7kZRbyUou2LZtQjarlqH/vbjR/zizatGE9HTp4gM6fO0c3bsicRO1VQyEIgAAIWEJAfsPkt0x+0+S3Tdbx79e7K1WvUpZebN2Uln6yUMeLfWLyRX67W/PB4yyWJlRmDwIqAYB48Dn/Gcdiavr337P03bcraeyYEdTllfb0/LO16MnKpalsySJUslh+CBjgHMA54MhzQH7D5LdMftPkt23cmJH0/bdf07lzshy/qT+ronw0//mKBcmlBFQDAMHWj/+sZ0ECARAAARBwBoE1bOZAlgAkVGkXAjoCAOmHf4Yd+p0FCQRAAARAwN4EtrN5DVjkt5s3SG4loCMAEHYX+E9dlgMsSCAAAiAAAvYkIL/RNdm0cywBSajUPgR0BQDikUwkqcEf5ATjDRIIgAAIgICNCMhvc3W25wQLEgiQzgBAcMrbAsvxBwwHMAQkEAABELAJAVlqtSLbom0VV9ZlIKGInQjoDgDEt7/5T1UWba+nYl1IIAACIAACxgjIhL8KXPQYCxII3CdgRgAgymV86Sn+MITlNgsSCIAACICAtQTkOf8JXKWM+Z/nbcATDLAXAbMCAPHyJv8ZzPIsyxkWJBAAARAAAWsIyG+uPJ0lK7Zitr81zB1Xi5kBQASMFfyhGMsSFiQQAAEQAAFzCcja/kW5ii9ZbJRgit0IWBEAiM8y9tSIP1Rj+YMFCQRAAARAQC8BmYRdm1U2YZGnsniDBAIxE7AqAIiwQCajPMZfXmORdwnwBgkEQAAEQECBwGEu+ypLEZavWWyZYJT9CFgdAAiB6/znfZa8LO1Z9rAggQAIgAAI+EfgL87ejiUfyyQW+W3lDRII+EYgEAFAhGXh/GEGyyMsJVlktqq8mpI/IoEACIAACERDQGbzz+H9sqBPAd5+yCK/pbyxc4JtdiQQyAAgMo8t/EVmq2bjrSwpPJa3spgQHiFkEEggAAKuJSC/gb+x9++y1GHJwNKK5XsWecyPN0ggYIyAXQKACOuv8Qd5PWVP3spcgfS8lUhXxrdk2OBb/r6VZT/LWRZEvgwBCQRAwLEE5DdMfsvkN01+2+Q3biJ78wqL/PbJb2AJ/tyLZSWLI7v52W4kGxKwWwAQFZE8yyqRroxvycRBWdCiOGfKw5KGJQGLB0J2ZsDNYzwt/nwVuVmMk7tf0s7nBmwjkt8w+S2T3zT5bZPfuC7cepNZ5LdPfgP5IxII6Cdg9wBAv8fQCAIgAAIgYCEBVGVXAggA7NoysAsEQAAEQAAETCSAAMBEuFANAiAAAm4nAP/tSwABgH3bBpaBAAiAAAiAgGkEEACYhhaKQQAEQMDtBOC/nQkgALBz68A2EAABEAABEDCJAAIAk8BCLQiAAAi4nQD8tzcBBAD2bh9YBwIgAAIgAAKmEEAAYApWKAUBEAABtxOA/3YngADA7i0E+0AABEAABEDABAIIAEyACpUgAAIg4HYC8N/+BBAA2L+NYCEIgAAIgAAIaCeAAEA7UigEARAAAbcTgP9OIIAAwAmtBBtBAARAAARAQDMBBACagUIdCIAACLidAPx3BgEEAM5oJ1+tzMUZm7GMY1nHsovlBMs1ljsBEq4WKYAEAtXucs7JubeTfV/LMpalKYuco7xBAgEQCDQBBACBbgH1+jOziq4sG1j2s8xn6cZSiaUgS0aWBCxIILAd6s4AAAi7SURBVGAlATnn5NwrxJVWZunOsoBFzlEJCgbz55wsSEFHAA45hQACAKe01MN25uBdM1kOs4xnKc+CBAJOICBBwSA2dC/LhyzZWZBAAAQsJoAAwGLgGqpLyjqki/8v3rZhCWVBAgEnEpBz90U2XM5lGSJIwp+RHE4A5juHAAIA57SVWFqS/2xhkS7++LxFAoFgICDDBTJEIOd2iWBwCD6AgBMIIABwQivdtfE13mxieYQFCQSCkUB+dmozS2cWJEcSgNFOIoAAwBmt1ZfNnMASxoIEAsFMQHq2JrODI1mQQAAETCSAAMBEuJpUyw+hiCZ1UAMCjiAgQe9QR1gKI+8TwAdnEUAAYO/26sjmyQ8hb5BAwHUE3mCPX2JBAgEQMIEAAgAToGpSWYb1vMeCBAJuJvA+O/8EC5LtCcBApxFAAGDPFkvOZi1hkdnRvEECAdcSSMief8Iij7/yBgkEQEAXAQQAukjq1fMmq8vCggQCIEAki169DhD2JgDrnEcAAYD92iwfm/QqCxIIgMB/BHryRzwCyxCQQEAXAQQAukjq0yMroqHrXx9PaAoOAvJ44KjgcCUYvYBPTiSAAMBerSaroNW1l0mwBgRsQ+BZtkRWw+QNEgiAgCoBBACqBPWWH8LqPCxIIAACDxOQ/xsDHt6NPYEmgPqdSQABgH3aTe5stN39FyxclF7u2ofenz6P5i/7hhZ/viogYh+87rQkUO0+b+nXNHHaXO85WKBQEZ3wpRfgMZ0KoQsE3EoAAYB9Wl5ejyp3OEoWJU2WjHr2H0xDRoyjKk/WpPQZMlK8ePGUdKIwCPhLICwsjDJkzOQ9B98a+R717DeI5Nz0V080+eX/iPxfieYQdgWGAGp1KgEEAPZouZJshvLdf7JkyfnCP55Kl63I6pBAwD4ESperREPeHqcrCKjHnqEXgCEggYAKAQQAKvT0lZU7GrmzUdL4Sve+lC17TiUdKAwCZhHIliMXvdq9nw718n9F/s/o0AUdigRQ3LkEEAAEvu203P2XKFmGRALvDiwAgZgJyDn6eKmyMWfw/Qh6AXxnhZwgEC0BBADRYrF0p9zJyB2NUqWNmrVSKo/CIGAVgcbN25DHo3zKi4I3rbIZ9cREAPudTAABQGBbT8tz/yVLlaM8+fIH1hPUDgI+EsiVOy/JOetj9tiyyRMB0oMWWx4cAwEQiIEAAoAYwFi0W8tz/883ecEic1ENCOgh0JB7rDweuYlX0icKsC6AEkK1wijtbAIIAALXfrj7Dxx71BxgAtIL8PgTWuYCoBcgwG2J6p1LAAFA4NpuMFctdzC8MZ5w92+cHUoGlkCj5q11zQVAL0BAmhKVOp0AAoDAtKDc/T+tWrWMo2LsX5UiygeKAHoBAkUe9YLAXQIIAO5ysPov7v6tJo76bEkAvQC2bBafjEIm5xNAAGB9G+Lu33rmqNGmBNALYNOGgVmuIIAAwPpmxt2/9cxRo40JaOwFeMPGbgaZaXAnGAggALC2FXH3by1v1OYAApp7AZ5wgMswEQRsQQABgLXNgLt/a3mjNocQ0NQLIN7iiQChYLJAfXAQQABgXTtqufsXc/v3fJka13vSESL2qohT/DTLThV2UtYsu3Tr7dutI925c0dMVhVZFwC9AKoUUd4VBBAAWNfMWu7+rTMXNYGAYwmgF8DUpoPyYCGAAMCalnyMq1F+7p91IIEACMRNAL0AcTNCDhAgBADWnAS4+7eGM2oBgQgC6AWIIKF5C3XBQwABgPltKXf/z5hfDWoAARCIRAC9AJFg4CMIREcAAUB0VPTuw92/Xp7QBgK+EkAvgK+kfM6HjMFEAAGA+a2Ju3/zGaMGEIiOQL3odmIfCIDAXQIIAO5yMPOv8hv/zDQOukEgiAng/57mxoW64CKAACC42hPegAAIgAAIgIBPBBAA+IQJmUAABEDA7QTgf7ARQAAQbC0Kf0AABEAABEDABwIIAHyAhCwgAAIg4HYC8D/4CCAACL42hUcgAAIgAAIgECcBBABxIkIGEAABEHA7AfgfjAQQAARjq8InEAABEAABEIiDAAKAOADhMAiAAAi4nQD8D04CCABs3q6TZy4mCBi49Ryw+X9PmAcCjiaAAMDRzQfjQQAEQMBsAtAfrAQQAARry8IvEAABEAABEIiFAAKAWODgEAiAAAi4nQD8D14CCACCt23hGQiAAAiAAAjESAABQIxocAAEQAAE3E4A/gczAQQAwdy68A0EQAAEQAAEYiCAACAGMNgNAiAAAm4nAP+DmwACgOBuX3gHAiAAAiAAAtESQAAQLRbsBAEQAAG3E4D/wU4AAUCwtzD8AwEQAAEQAIFoCCAAiAYKdoEACICA2wnA/+AngAAg+NsYHoIACIAACIDAQwQQADyEBDtAAARAwO0E4L8bCCAAcEMrw0cQAAEQAAEQiEIAAUAUIPgKAiAAAm4nAP/dQQABgM3b+eW2jQkCBm49B2z+3xPmgYCjCSAAcHTzwXgQAAEQ0E0A+txCAAGAW1oafoIACIAACIBAJAIIACLBwEcQAAEQcDsB+O8eAggA3NPW8BQEQAAEQAAE7hNAAHAfBT6AAAiAgNsJwH83EUAA4KbWhq8gAAIgAAIgcI8AAoB7ILABARAAAbcTgP/uIoAAwF3tDW9BAARAAARAwEsAAYAXA/6AAAiAgNsJwH+3EUAA4LYWh78gAAIgAAIgwAQQADAEJBAAARBwOwH47z4CCADc1+bwGARAAARAAAQIAQBOAhAAARBwPQEAcCMBBABubHX4DAIgAAIg4HoCCABcfwoAAAiAgNsJwH93EkAAYH67e7gKCBEYgEEgzgHCPxAAgegJIACIngv2ggAIgIBLCMBNtxJAAODWloffIAACIAACriaAAMDVzQ/nQQAE3E4A/ruXAAIA97Y9PAcBEAABEHAxAQQALm58uA4CIOB2AvDfzQQQALi59eE7CIAACICAawkgAHBt08NxEAABtxOA/+4m8H8AAAD//xlP7B0AAAAGSURBVAMAUXWrWL+qFfYAAAAASUVORK5CYII=;" parent="1" vertex="1">
          <mxGeometry x="886.25" y="316.25" width="57.5" height="57.5" as="geometry" />
        </mxCell>
        <mxCell id="AgYXCAEw2qL4iN-lsCkc-1" value="stored procedure" style="image;aspect=fixed;html=1;points=[];align=center;fontSize=9;image=img/lib/azure2/general/Code.svg;" vertex="1" parent="1">
          <mxGeometry x="273.08" y="200" width="24.61" height="20" as="geometry" />
        </mxCell>
        <mxCell id="AgYXCAEw2qL4iN-lsCkc-5" value="stored procedure" style="image;aspect=fixed;html=1;points=[];align=center;fontSize=9;image=img/lib/azure2/general/Code.svg;" vertex="1" parent="1">
          <mxGeometry x="482.7" y="200" width="24.61" height="20" as="geometry" />
        </mxCell>
        <mxCell id="AgYXCAEw2qL4iN-lsCkc-6" value="" style="html=1;verticalLabelPosition=bottom;labelBackgroundColor=#ffffff;verticalAlign=top;shadow=0;dashed=0;strokeWidth=2;shape=mxgraph.ios7.misc.down;strokeColor=#0080f0;" vertex="1" parent="1">
          <mxGeometry x="450" y="350" width="12" height="6" as="geometry" />
        </mxCell>
        <mxCell id="AgYXCAEw2qL4iN-lsCkc-7" value="" style="html=1;verticalLabelPosition=bottom;labelBackgroundColor=#ffffff;verticalAlign=top;shadow=0;dashed=0;strokeWidth=2;shape=mxgraph.ios7.misc.down;strokeColor=#0080f0;" vertex="1" parent="1">
          <mxGeometry x="274.5" y="240" width="21" height="10" as="geometry" />
        </mxCell>
        <mxCell id="AgYXCAEw2qL4iN-lsCkc-8" value="" style="html=1;verticalLabelPosition=bottom;labelBackgroundColor=#ffffff;verticalAlign=top;shadow=0;dashed=0;strokeWidth=2;shape=mxgraph.ios7.misc.down;strokeColor=#0080f0;" vertex="1" parent="1">
          <mxGeometry x="484.5" y="240" width="21" height="10" as="geometry" />
        </mxCell>
      </root>
    </mxGraphModel>
  </diagram>
</mxfile>
